<svg width="164" height="48" viewBox="0 0 164 48" fill="none" xmlns="http://www.w3.org/2000/svg">
<rect width="164" height="48" rx="4" fill="#33CC99"/>
<path d="M39.7103 24.9221C39.6781 21.2584 42.6346 19.476 42.7698 19.393C41.0954 16.8888 38.5002 16.5466 37.5882 16.5194C35.4086 16.2841 33.2943 17.8573 32.184 17.8573C31.0515 17.8573 29.3417 16.5421 27.4989 16.5807C25.1276 16.6183 22.9091 18.0267 21.6924 20.2138C19.1815 24.6732 21.0542 31.2265 23.4599 34.8311C24.6633 36.5965 26.0695 38.5676 27.91 38.4982C29.7107 38.4221 30.3833 37.3206 32.5563 37.3206C34.7094 37.3206 35.341 38.4982 37.2181 38.4539C39.1507 38.4221 40.3674 36.6806 41.5287 34.8993C42.9193 32.8759 43.4778 30.8832 43.5 30.7809C43.4546 30.765 39.7468 29.3134 39.7103 24.9221Z" fill="white"/>
<path d="M36.1643 14.1481C37.1328 12.9057 37.7955 11.2153 37.6115 9.5C36.2098 9.56366 34.4567 10.4946 33.4472 11.7098C32.5541 12.7806 31.7563 14.5358 31.9624 16.1863C33.537 16.3068 35.1537 15.3713 36.1643 14.1481Z" fill="white"/>
<path d="M55.1422 16.5H53.1264V10.2735H55.206C55.8161 10.2735 56.34 10.3981 56.7778 10.6474C57.2156 10.8947 57.5511 11.2504 57.7842 11.7146C58.0193 12.1767 58.1368 12.7311 58.1368 13.3776C58.1368 14.0262 58.0183 14.5836 57.7811 15.0498C57.546 15.516 57.2055 15.8747 56.7596 16.126C56.3137 16.3753 55.7745 16.5 55.1422 16.5ZM54.0659 15.6791H55.0905C55.5648 15.6791 55.959 15.5899 56.2731 15.4116C56.5873 15.2312 56.8224 14.9707 56.9785 14.6302C57.1346 14.2877 57.2126 13.8702 57.2126 13.3776C57.2126 12.8892 57.1346 12.4747 56.9785 12.1341C56.8244 11.7936 56.5944 11.5352 56.2883 11.3589C55.9823 11.1825 55.6023 11.0944 55.1482 11.0944H54.0659V15.6791ZM60.587 10.2735V16.5H59.6475V10.2735H60.587ZM65.6936 11.9092C65.6611 11.6214 65.5274 11.3984 65.2922 11.2403C65.0571 11.0802 64.7612 11.0001 64.4045 11.0001C64.1491 11.0001 63.9282 11.0407 63.7417 11.1217C63.5552 11.2008 63.4103 11.3102 63.3069 11.4501C63.2056 11.5879 63.1549 11.745 63.1549 11.9213C63.1549 12.0693 63.1894 12.197 63.2583 12.3044C63.3292 12.4118 63.4215 12.502 63.535 12.575C63.6505 12.6459 63.7741 12.7057 63.9059 12.7544C64.0376 12.801 64.1643 12.8395 64.2859 12.8699L64.894 13.028C65.0926 13.0766 65.2963 13.1425 65.5051 13.2256C65.7138 13.3087 65.9074 13.4182 66.0858 13.554C66.2641 13.6898 66.408 13.858 66.5175 14.0587C66.629 14.2593 66.6847 14.4995 66.6847 14.7792C66.6847 15.1319 66.5935 15.445 66.4111 15.7186C66.2307 15.9923 65.9682 16.2081 65.6236 16.3662C65.2811 16.5243 64.8666 16.6034 64.3802 16.6034C63.914 16.6034 63.5106 16.5294 63.1701 16.3814C62.8296 16.2335 62.5631 16.0237 62.3705 15.7521C62.178 15.4785 62.0716 15.1542 62.0513 14.7792H62.9938C63.012 15.0042 63.085 15.1917 63.2127 15.3417C63.3424 15.4896 63.5076 15.6001 63.7083 15.673C63.9109 15.744 64.1329 15.7795 64.3741 15.7795C64.6396 15.7795 64.8757 15.7379 65.0825 15.6548C65.2912 15.5697 65.4554 15.4521 65.575 15.3021C65.6946 15.1501 65.7544 14.9728 65.7544 14.7701C65.7544 14.5856 65.7017 14.4346 65.5963 14.3171C65.4929 14.1995 65.352 14.1022 65.1737 14.0252C64.9973 13.9482 64.7977 13.8803 64.5747 13.8215L63.839 13.6208C63.3404 13.485 62.9451 13.2854 62.6533 13.0219C62.3634 12.7584 62.2185 12.4098 62.2185 11.9761C62.2185 11.6173 62.3158 11.3042 62.5104 11.0366C62.705 10.7691 62.9685 10.5613 63.3009 10.4133C63.6333 10.2634 64.0082 10.1884 64.4258 10.1884C64.8473 10.1884 65.2193 10.2623 65.5415 10.4103C65.8658 10.5583 66.1212 10.762 66.3077 11.0214C66.4942 11.2788 66.5915 11.5747 66.5996 11.9092H65.6936ZM68.1498 16.5V10.2735H70.3692C70.8536 10.2735 71.2549 10.3617 71.5731 10.538C71.8914 10.7143 72.1295 10.9555 72.2876 11.2616C72.4457 11.5656 72.5248 11.9082 72.5248 12.2892C72.5248 12.6723 72.4447 13.0168 72.2846 13.3229C72.1265 13.6269 71.8873 13.8681 71.5671 14.0465C71.2488 14.2228 70.8485 14.311 70.3661 14.311H68.8399V13.5144H70.281C70.5871 13.5144 70.8354 13.4617 71.0259 13.3563C71.2164 13.2489 71.3563 13.103 71.4454 12.9185C71.5346 12.7341 71.5792 12.5243 71.5792 12.2892C71.5792 12.0541 71.5346 11.8453 71.4454 11.6629C71.3563 11.4805 71.2154 11.3376 71.0228 11.2342C70.8323 11.1309 70.581 11.0792 70.2689 11.0792H69.0892V16.5H68.1498ZM79.3772 13.3867C79.3772 14.0516 79.2556 14.6231 79.0124 15.1015C78.7692 15.5778 78.4357 15.9446 78.0121 16.2021C77.5905 16.4574 77.1112 16.5851 76.5741 16.5851C76.0349 16.5851 75.5536 16.4574 75.1299 16.2021C74.7084 15.9446 74.376 15.5768 74.1327 15.0984C73.8895 14.6201 73.7679 14.0495 73.7679 13.3867C73.7679 12.7219 73.8895 12.1514 74.1327 11.6751C74.376 11.1967 74.7084 10.8299 75.1299 10.5745C75.5536 10.3171 76.0349 10.1884 76.5741 10.1884C77.1112 10.1884 77.5905 10.3171 78.0121 10.5745C78.4357 10.8299 78.7692 11.1967 79.0124 11.6751C79.2556 12.1514 79.3772 12.7219 79.3772 13.3867ZM78.4469 13.3867C78.4469 12.88 78.3648 12.4534 78.2006 12.1068C78.0385 11.7582 77.8155 11.4947 77.5318 11.3163C77.25 11.1359 76.9308 11.0457 76.5741 11.0457C76.2153 11.0457 75.8951 11.1359 75.6133 11.3163C75.3316 11.4947 75.1087 11.7582 74.9445 12.1068C74.7823 12.4534 74.7013 12.88 74.7013 13.3867C74.7013 13.8935 74.7823 14.3211 74.9445 14.6697C75.1087 15.0163 75.3316 15.2798 75.6133 15.4602C75.8951 15.6386 76.2153 15.7278 76.5741 15.7278C76.9308 15.7278 77.25 15.6386 77.5318 15.4602C77.8155 15.2798 78.0385 15.0163 78.2006 14.6697C78.3648 14.3211 78.4469 13.8935 78.4469 13.3867ZM85.9165 10.2735V16.5H85.0531L81.8882 11.9335H81.8304V16.5H80.8909V10.2735H81.7605L84.9284 14.8461H84.9862V10.2735H85.9165ZM88.5689 10.2735V16.5H87.6294V10.2735H88.5689ZM87.7267 9.65023L88.4381 8.24866H89.3958L88.4533 9.65023H87.7267ZM90.8237 10.2735L92.5566 15.3447H92.6265L94.3595 10.2735H95.375L93.1343 16.5H92.0489L89.8082 10.2735H90.8237ZM96.6166 16.5V10.2735H100.52V11.0822H97.556V12.9793H100.317V13.785H97.556V15.6913H100.557V16.5H96.6166ZM102.118 16.5V10.2735H103.057V15.6913H105.878V16.5H102.118ZM114.926 10.2735V16.5H114.063L110.898 11.9335H110.84V16.5H109.901V10.2735H110.77L113.938 14.8461H113.996V10.2735H114.926ZM117.165 16.5H116.168L118.409 10.2735H119.494L121.735 16.5H120.738L118.977 11.4045H118.929L117.165 16.5ZM117.333 14.0617H120.567V14.8522H117.333V14.0617Z" fill="white"/>
<path d="M65.4038 35.4693H62.7838L61.3487 31.2041H56.3602L54.9931 35.4693H52.4424L57.3847 20.9485H60.4373L65.4038 35.4693ZM60.916 29.4146L59.6182 25.6229C59.4809 25.2355 59.2236 24.3234 58.8441 22.8874H58.7979C58.6468 23.505 58.4034 24.4172 58.0688 25.6229L56.794 29.4146H60.916Z" fill="white"/>
<path d="M78.1137 30.1053C78.1137 31.8861 77.605 33.2936 76.5874 34.3269C75.676 35.2468 74.5443 35.7061 73.1933 35.7061C71.7351 35.7061 70.6876 35.2108 70.0496 34.22H70.0035V39.7357H67.5439V28.4457C67.5439 27.3262 67.5127 26.1772 67.4527 24.9988H69.6158L69.7531 26.6584H69.7993C70.6195 25.408 71.8643 24.7838 73.5348 24.7838C74.8408 24.7838 75.931 25.2716 76.8032 26.2482C77.6776 27.2258 78.1137 28.5112 78.1137 30.1053ZM75.608 30.1904C75.608 29.1713 75.3657 28.3311 74.8789 27.6699C74.347 26.9803 73.6329 26.6355 72.7377 26.6355C72.1308 26.6355 71.5794 26.8275 71.0868 27.2062C70.593 27.5881 70.27 28.0867 70.1188 28.7043C70.0427 28.9924 70.0046 29.2281 70.0046 29.4135V31.1594C70.0046 31.921 70.2515 32.5637 70.7453 33.0885C71.239 33.6133 71.8805 33.8752 72.6696 33.8752C73.596 33.8752 74.317 33.537 74.8327 32.8626C75.3495 32.1872 75.608 31.2969 75.608 30.1904Z" fill="white"/>
<path d="M90.8467 30.1053C90.8467 31.8861 90.338 33.2936 89.3193 34.3269C88.409 35.2468 87.2773 35.7061 85.9264 35.7061C84.4681 35.7061 83.4206 35.2108 82.7838 34.22H82.7376V39.7357H80.278V28.4457C80.278 27.3262 80.2469 26.1772 80.1869 24.9988H82.35L82.4873 26.6584H82.5334C83.3525 25.408 84.5974 24.7838 86.269 24.7838C87.5738 24.7838 88.664 25.2716 89.5385 26.2482C90.4095 27.2258 90.8467 28.5112 90.8467 30.1053ZM88.341 30.1904C88.341 29.1713 88.0976 28.3311 87.6107 27.6699C87.0789 26.9803 86.3671 26.6355 85.4707 26.6355C84.8627 26.6355 84.3124 26.8275 83.8186 27.2062C83.3249 27.5881 83.003 28.0867 82.8519 28.7043C82.7769 28.9924 82.7376 29.2281 82.7376 29.4135V31.1594C82.7376 31.921 82.9845 32.5637 83.476 33.0885C83.9698 33.6122 84.6112 33.8752 85.4026 33.8752C86.329 33.8752 87.05 33.537 87.5657 32.8626C88.0826 32.1872 88.341 31.2969 88.341 30.1904Z" fill="white"/>
<path d="M105.083 31.3972C105.083 32.6324 104.629 33.6373 103.719 34.4131C102.719 35.261 101.327 35.6843 99.5372 35.6843C97.8851 35.6843 96.5607 35.3832 95.5582 34.7798L96.1281 32.8408C97.2079 33.4584 98.3927 33.7683 99.6837 33.7683C100.61 33.7683 101.331 33.5697 101.849 33.1747C102.365 32.7797 102.622 32.2494 102.622 31.5882C102.622 30.999 102.41 30.5025 101.984 30.0999C101.561 29.6972 100.854 29.323 99.866 28.9771C97.1779 28.0289 95.8351 26.6399 95.8351 24.8133C95.8351 23.6196 96.3058 22.6408 97.2483 21.8792C98.1874 21.1165 99.4403 20.7357 101.007 20.7357C102.404 20.7357 103.565 20.9659 104.491 21.4253L103.876 23.3217C103.011 22.8765 102.033 22.6539 100.938 22.6539C100.072 22.6539 99.3964 22.8558 98.9119 23.2573C98.5023 23.6163 98.297 24.0539 98.297 24.5722C98.297 25.1461 98.5312 25.6207 99.0019 25.9939C99.4114 26.3387 100.156 26.7119 101.235 27.1145C102.556 27.6175 103.527 28.2057 104.151 28.88C104.772 29.5521 105.083 30.3934 105.083 31.3972Z" fill="white"/>
<path d="M113.215 26.7446H110.504V31.8282C110.504 33.1212 110.982 33.7672 111.939 33.7672C112.379 33.7672 112.743 33.7312 113.032 33.6592L113.1 35.4257C112.615 35.597 111.977 35.6832 111.187 35.6832C110.215 35.6832 109.456 35.4028 108.908 34.843C108.363 34.2822 108.088 33.3416 108.088 32.0203V26.7424H106.473V24.9966H108.088V23.0795L110.504 22.3899V24.9966H113.215V26.7446Z" fill="white"/>
<path d="M125.447 30.1479C125.447 31.7573 124.96 33.0787 123.989 34.112C122.97 35.1758 121.618 35.7061 119.933 35.7061C118.308 35.7061 117.015 35.1966 116.051 34.1774C115.086 33.1583 114.604 31.8719 114.604 30.3214C114.604 28.6988 115.1 27.3698 116.096 26.3365C117.089 25.3021 118.43 24.7849 120.115 24.7849C121.739 24.7849 123.046 25.2945 124.033 26.3147C124.977 27.3044 125.447 28.5821 125.447 30.1479ZM122.895 30.2232C122.895 29.2575 122.677 28.4293 122.235 27.7386C121.72 26.9028 120.983 26.486 120.027 26.486C119.039 26.486 118.288 26.9039 117.772 27.7386C117.33 28.4304 117.112 29.2717 117.112 30.2668C117.112 31.2325 117.33 32.0606 117.772 32.7502C118.304 33.5861 119.047 34.0029 120.005 34.0029C120.945 34.0029 121.682 33.5773 122.214 32.7284C122.667 32.0246 122.895 31.1877 122.895 30.2232Z" fill="white"/>
<path d="M133.442 27.0447C133.199 27.0021 132.939 26.9803 132.667 26.9803C131.802 26.9803 131.133 27.2891 130.662 27.9078C130.252 28.4533 130.047 29.1429 130.047 29.9755V35.4694H127.589L127.612 28.2962C127.612 27.0894 127.58 25.9906 127.519 24.9999H129.662L129.752 27.0032H129.82C130.079 26.3147 130.489 25.7604 131.05 25.3447C131.598 24.9704 132.189 24.7838 132.827 24.7838C133.055 24.7838 133.26 24.7991 133.442 24.8264V27.0447Z" fill="white"/>
<path d="M144.442 29.7387C144.442 30.1555 144.414 30.5069 144.352 30.7938H136.974C137.002 31.8282 137.359 32.6193 138.044 33.1649C138.666 33.6526 139.47 33.897 140.458 33.897C141.55 33.897 142.547 33.7323 143.443 33.4017L143.829 35.0165C142.781 35.4486 141.544 35.6636 140.117 35.6636C138.401 35.6636 137.053 35.1857 136.073 34.2309C135.094 33.2762 134.604 31.9941 134.604 30.3857C134.604 28.8069 135.06 27.492 135.972 26.4435C136.927 25.324 138.218 24.7642 139.843 24.7642C141.438 24.7642 142.646 25.324 143.466 26.4435C144.116 27.3327 144.442 28.4326 144.442 29.7387ZM142.097 29.1353C142.113 28.4457 141.953 27.8499 141.619 27.3469C141.194 26.6999 140.54 26.3769 139.659 26.3769C138.855 26.3769 138.201 26.6922 137.702 27.3251C137.292 27.8281 137.049 28.4315 136.974 29.1342L142.097 29.1353Z" fill="white"/>
</svg>
