<svg width="344" height="345" viewBox="0 0 344 345" fill="none" xmlns="http://www.w3.org/2000/svg">
<g opacity="0.75">
<path d="M296.638 69.957V112.572L57.2411 94.3363C51.3037 93.8822 46.1299 98.3267 45.6793 104.261L39.3325 187.543C39.1364 190.099 39.8553 192.517 41.2038 194.478L35.834 195.747V69.957C35.834 64.281 40.4333 59.6817 46.1093 59.6817H286.362C292.038 59.6817 296.638 64.281 296.638 69.957Z" fill="#D1D5DB"/>
</g>
<g opacity="0.75">
<path d="M59.9553 298.019L296.638 242.112V299.512C296.638 305.188 292.038 309.79 286.362 309.79H46.1093C40.4333 309.79 35.834 305.188 35.834 299.512V242.783L46.9899 290.007C48.3556 295.8 54.1589 299.388 59.9553 298.019Z" fill="#D1D5DB"/>
</g>
<path d="M35.1465 196.618V69.9571C35.1465 63.913 40.0657 58.9938 46.1098 58.9938H286.363C292.407 58.9938 297.326 63.913 297.326 69.9571V113.315L57.19 95.0243C54.5034 94.8179 51.8958 95.6711 49.8525 97.4255C47.8091 99.1799 46.5707 101.626 46.3678 104.312L40.021 187.595C39.8455 189.882 40.4682 192.191 41.7719 194.086L42.343 194.915L35.1499 196.614L35.1465 196.618ZM46.1098 60.3698C40.8225 60.3698 36.5225 64.6698 36.5225 69.9571V194.877L40.1138 194.028C38.9924 192.05 38.473 189.762 38.6484 187.488L44.9952 104.206C45.2257 101.151 46.6326 98.3715 48.9581 96.3797C51.2801 94.3845 54.2419 93.4144 57.2966 93.6483L295.954 111.829V69.9571C295.954 64.6698 291.654 60.3698 286.366 60.3698H46.1098Z" fill="#D1D5DB"/>
<path d="M286.363 310.478H46.1098C40.0657 310.478 35.1465 305.559 35.1465 299.512V236.88L47.6612 289.849C48.2804 292.474 49.8834 294.696 52.1745 296.113C54.4655 297.53 57.1762 297.967 59.7975 297.348L297.326 241.242V299.512C297.326 305.559 292.407 310.478 286.363 310.478ZM36.5225 248.689V299.512C36.5225 304.799 40.8225 309.102 46.1098 309.102H286.363C291.65 309.102 295.95 304.799 295.95 299.512V242.982L60.114 298.69C57.1315 299.395 54.0562 298.896 51.4486 297.286C48.8446 295.676 47.0214 293.148 46.3196 290.165L36.5225 248.689Z" fill="#D1D5DB"/>
<g opacity="0.5">
<path d="M306.544 113.325L57.2404 94.3329C51.303 93.8788 46.1292 98.3268 45.6786 104.261L39.3318 187.54C39.1357 190.096 39.8512 192.517 41.2031 194.475L59.4936 190.154L54.4265 189.769C51.0587 189.511 48.5372 186.577 48.7952 183.209L51.6917 145.214L54.3749 109.971C54.6329 106.603 57.5672 104.085 60.935 104.343L139.116 110.298C142.484 110.556 145.005 113.49 144.747 116.858L141.627 157.808L140.626 170.99L279.127 138.272C284.924 136.903 290.727 140.491 292.096 146.28L308.037 213.773C309.214 212.194 309.967 210.275 310.129 208.162L316.472 124.884C316.926 118.95 312.482 113.772 306.544 113.318V113.325Z" fill="#D1D5DB"/>
</g>
<path d="M307.704 215.38L291.423 146.449C290.143 141.038 284.701 137.674 279.283 138.95L139.866 171.881L144.06 116.81C144.17 115.365 143.712 113.965 142.766 112.864C141.824 111.763 140.506 111.1 139.062 110.989L60.8807 105.035C59.4393 104.925 58.0358 105.382 56.935 106.325C55.8342 107.267 55.1703 108.581 55.0602 110.026L49.4805 183.264C49.3704 184.709 49.8314 186.109 50.7739 187.21C51.7165 188.31 53.034 188.974 54.4788 189.084L63.9663 189.81L40.9046 195.256L40.6363 194.867C39.1502 192.714 38.445 190.092 38.6445 187.488L44.9913 104.209C45.2218 101.154 46.6287 98.3749 48.9507 96.3797C51.2727 94.3845 54.2346 93.4145 57.2893 93.6484L306.593 112.641C309.648 112.875 312.427 114.282 314.422 116.607C316.418 118.929 317.388 121.891 317.154 124.946L310.81 208.224C310.645 210.395 309.875 212.459 308.585 214.193L307.704 215.38ZM281.601 137.302C286.796 137.302 291.515 140.862 292.761 146.132L308.323 212.029C308.953 210.825 309.331 209.497 309.438 208.121L315.781 124.842C315.988 122.156 315.134 119.548 313.38 117.505C311.626 115.461 309.18 114.22 306.49 114.017L57.1861 95.0244C54.496 94.818 51.8919 95.6711 49.8486 97.4289C47.8052 99.1833 46.5668 101.629 46.3639 104.319L40.0171 187.598C39.8519 189.734 40.3817 191.884 41.5135 193.701L55.0223 190.512L54.3722 190.464C52.5593 190.326 50.9115 189.49 49.7282 188.111C48.5448 186.731 47.9703 184.977 48.1079 183.164L53.6876 109.926C53.8252 108.114 54.6611 106.466 56.0406 105.282C57.42 104.099 59.1744 103.525 60.9873 103.662L139.168 109.617C140.981 109.754 142.629 110.59 143.812 111.97C144.996 113.349 145.57 115.104 145.432 116.917L141.38 170.113L278.966 137.612C279.85 137.402 280.731 137.302 281.601 137.302Z" fill="#D1D5DB"/>
<g opacity="0.35">
<path d="M144.747 116.862L141.627 157.811L140.626 170.993L59.4968 190.158L54.4297 189.772C51.062 189.514 48.5404 186.58 48.7984 183.212L51.6949 145.217L54.3781 109.975C54.6361 106.607 57.5704 104.089 60.9382 104.347L139.119 110.301C142.487 110.559 145.008 113.494 144.75 116.862H144.747Z" fill="#D1D5DB"/>
</g>
<g opacity="0.75">
<path d="M141.627 157.811L140.626 170.993L59.4968 190.158L54.4297 189.772C51.062 189.514 48.5404 186.58 48.7984 183.212L51.6949 145.217L74.626 131.193C76.198 130.233 78.2208 130.494 79.497 131.819L102.669 155.84C103.873 157.085 105.744 157.398 107.285 156.604L126.223 146.889C127.698 146.132 129.497 146.387 130.705 147.526L141.63 157.815L141.627 157.811Z" fill="#D1D5DB"/>
</g>
<g opacity="0.75">
<path d="M110.608 139.442C116.511 139.442 121.296 134.656 121.296 128.754C121.296 122.851 116.511 118.066 110.608 118.066C104.705 118.066 99.9199 122.851 99.9199 128.754C99.9199 134.656 104.705 139.442 110.608 139.442Z" fill="#D1D5DB"/>
</g>
<path d="M59.5498 190.852L54.3761 190.457C52.5632 190.319 50.9154 189.483 49.7321 188.104C48.5487 186.724 47.9742 184.97 48.1118 183.157L51.0324 144.812L74.2627 130.604C76.1238 129.469 78.4767 129.772 79.9903 131.34L103.162 155.362C104.163 156.397 105.691 156.649 106.967 155.992L125.907 146.277C127.645 145.389 129.76 145.689 131.174 147.027L142.337 157.54L141.27 171.554L59.5498 190.856V190.852ZM52.3499 145.62L49.481 183.264C49.3709 184.709 49.8318 186.109 50.7744 187.21C51.717 188.31 53.0345 188.974 54.4793 189.084L59.4432 189.463L139.977 170.44L140.916 158.086L130.232 148.024C129.237 147.085 127.755 146.876 126.537 147.498L107.6 157.213C105.78 158.152 103.602 157.791 102.175 156.315L78.9996 132.293C77.9401 131.193 76.2854 130.979 74.9817 131.777L52.3534 145.616L52.3499 145.62Z" fill="#D1D5DB"/>
<path d="M110.623 140.13C110.33 140.13 110.035 140.119 109.742 140.095C106.712 139.865 103.953 138.468 101.975 136.163C99.9967 133.859 99.0335 130.921 99.264 127.89C99.4945 124.86 100.891 122.101 103.196 120.123C105.501 118.145 108.438 117.181 111.469 117.412C114.5 117.642 117.259 119.039 119.237 121.344C121.215 123.649 122.178 126.586 121.947 129.617C121.717 132.648 120.32 135.407 118.015 137.385C115.934 139.17 113.337 140.13 110.623 140.13ZM110.588 118.754C108.201 118.754 105.92 119.596 104.09 121.165C102.064 122.906 100.836 125.331 100.633 127.993C100.43 130.656 101.276 133.239 103.017 135.266C104.758 137.292 107.183 138.52 109.845 138.723C112.511 138.926 115.091 138.079 117.118 136.339C119.144 134.598 120.372 132.173 120.575 129.51C120.778 126.848 119.932 124.264 118.191 122.238C116.45 120.212 114.025 118.984 111.362 118.781C111.104 118.76 110.843 118.75 110.588 118.75V118.754Z" fill="#D1D5DB"/>
<path d="M219.396 122.914L161.099 118.469L160.443 127.064L218.74 131.509L219.396 122.914Z" fill="#D1D5DB"/>
<g opacity="0.35">
<path d="M279.128 138.279L35.7993 195.754C30.0029 197.124 26.4185 202.93 27.7876 208.72L46.9897 290.007C48.3588 295.8 54.1621 299.388 59.955 298.019L303.284 240.543C309.08 239.174 312.664 233.367 311.295 227.578L292.093 146.291C290.724 140.498 284.921 136.91 279.128 138.279ZM142.9 262.177C143.678 265.463 141.641 268.755 138.356 269.532L62.05 287.558C58.7648 288.335 55.4727 286.299 54.6953 283.014L37.8117 211.53C37.0343 208.245 39.0708 204.953 42.356 204.176L118.662 186.15C121.947 185.373 125.239 187.409 126.017 190.694L142.9 262.177Z" fill="#D1D5DB"/>
</g>
<path d="M57.4783 298.999C52.2839 298.999 47.5642 295.439 46.3189 290.169L27.1168 208.882C26.4116 205.899 26.9104 202.824 28.5204 200.22C30.1303 197.616 32.6587 195.792 35.6412 195.087L278.97 137.612C281.952 136.906 285.027 137.405 287.631 139.015C290.236 140.625 292.059 143.153 292.764 146.132L311.966 227.42C313.418 233.574 309.596 239.762 303.442 241.214L60.1133 298.69C59.2292 298.899 58.3486 298.999 57.4783 298.999ZM281.625 138.675C280.848 138.675 280.063 138.764 279.286 138.95L35.9576 196.425C33.3329 197.044 31.1072 198.648 29.6934 200.942C28.2761 203.233 27.8392 205.94 28.4584 208.565L47.6605 289.852C48.9402 295.267 54.3857 298.631 59.8003 297.351L303.129 239.876C308.543 238.596 311.908 233.151 310.628 227.736L291.426 146.449C290.807 143.828 289.204 141.602 286.913 140.185C285.299 139.187 283.479 138.675 281.629 138.675H281.625Z" fill="#D1D5DB"/>
<path d="M60.6434 288.411C57.5611 288.411 54.7644 286.299 54.0248 283.172L37.1413 211.689C36.2779 208.039 38.5483 204.368 42.1981 203.505L118.504 185.479C122.154 184.616 125.825 186.886 126.688 190.536L143.571 262.019C144.435 265.669 142.165 269.34 138.515 270.203L62.2086 288.229C61.6857 288.352 61.1594 288.411 60.6434 288.411ZM120.062 186.676C119.65 186.676 119.233 186.725 118.814 186.821L42.5077 204.846C39.5975 205.534 37.788 208.462 38.476 211.372L55.3595 282.855C56.0475 285.766 58.975 287.575 61.8887 286.887L138.195 268.861C141.105 268.173 142.914 265.246 142.226 262.332L125.343 190.849C124.755 188.355 122.522 186.67 120.062 186.67V186.676Z" fill="#D1D5DB"/>
<g opacity="0.25">
<path d="M42.3564 204.176L118.661 186.153C121.945 185.377 125.24 187.412 126.016 190.696L142.9 262.177C143.675 265.461 141.64 268.756 138.356 269.531L62.0509 287.555C58.7667 288.331 55.4723 286.295 54.6965 283.011L37.8125 211.531C37.0367 208.246 39.0721 204.952 42.3564 204.176Z" fill="#D1D5DB"/>
</g>
<g opacity="0.5">
<path d="M135.457 230.667L142.901 262.178C143.678 265.463 141.642 268.755 138.357 269.532L62.0505 287.558C58.7653 288.335 55.4732 286.299 54.6957 283.014L45.9375 245.93L63.5365 225.614C64.744 224.224 66.7495 223.856 68.3697 224.733L97.7336 240.598C99.2575 241.421 101.139 241.149 102.364 239.928L117.465 224.929C118.642 223.76 120.431 223.454 121.927 224.176L135.457 230.671V230.667Z" fill="#D1D5DB"/>
</g>
<g opacity="0.5">
<path d="M97.0846 223.068C102.987 223.068 107.773 218.283 107.773 212.38C107.773 206.477 102.987 201.692 97.0846 201.692C91.1817 201.692 86.3965 206.477 86.3965 212.38C86.3965 218.283 91.1817 223.068 97.0846 223.068Z" fill="#D1D5DB"/>
</g>
<path d="M60.643 288.411C57.5607 288.411 54.764 286.299 54.0244 283.172L45.1836 245.744L63.0131 225.163C64.4407 223.519 66.7765 223.092 68.6926 224.128L98.0564 239.993C99.3223 240.677 100.857 240.454 101.875 239.439L116.98 224.437C118.363 223.061 120.468 222.707 122.226 223.55L136.051 230.185L143.571 262.016C144.434 265.666 142.164 269.336 138.514 270.199L62.2082 288.225C61.6853 288.349 61.1589 288.407 60.643 288.407V288.411ZM46.6834 246.113L55.3626 282.855C56.0506 285.765 58.978 287.575 61.8917 286.887L138.198 268.861C141.108 268.173 142.917 265.246 142.229 262.332L134.861 231.142L121.627 224.791C120.396 224.2 118.917 224.447 117.946 225.414L102.841 240.412C101.393 241.857 99.2054 242.174 97.3994 241.2L68.0355 225.332C66.6905 224.606 65.0496 224.905 64.0486 226.057L46.68 246.109L46.6834 246.113Z" fill="#D1D5DB"/>
<path d="M97.0828 223.756C91.9297 223.756 87.2478 220.223 86.0129 214.994C85.3145 212.036 85.8099 208.985 87.4061 206.401C89.0022 203.818 91.51 202.008 94.4684 201.31C100.574 199.869 106.711 203.66 108.153 209.766C108.851 212.724 108.356 215.775 106.76 218.359C105.163 220.942 102.656 222.752 99.6972 223.45C98.82 223.656 97.9462 223.756 97.0828 223.756ZM97.0828 202.38C96.3225 202.38 95.5554 202.466 94.7849 202.648C92.1842 203.264 89.9792 204.853 88.5757 207.124C87.1721 209.394 86.7353 212.077 87.351 214.678C87.9668 217.279 89.5561 219.48 91.8265 220.887C94.0969 222.291 96.7801 222.724 99.3807 222.112C101.981 221.496 104.186 219.907 105.59 217.636C106.993 215.366 107.43 212.683 106.815 210.082C105.728 205.486 101.613 202.38 97.0828 202.38Z" fill="#D1D5DB"/>
<g opacity="0.5">
<path d="M198.989 173.821L142.089 187.261L144.071 195.651L200.971 182.211L198.989 173.821Z" fill="#D1D5DB"/>
</g>
<path d="M143.562 196.48L141.264 186.752L199.503 172.995L201.801 182.724L143.562 196.48ZM142.918 187.774L144.583 194.826L200.143 181.702L198.478 174.65L142.918 187.774Z" fill="#D1D5DB"/>
<path d="M148.064 213.25C147.751 213.25 147.469 213.037 147.397 212.721C147.311 212.349 147.538 211.981 147.91 211.892L281.898 180.244C282.266 180.154 282.637 180.385 282.727 180.756C282.813 181.128 282.586 181.496 282.214 181.585L148.226 213.233C148.175 213.247 148.119 213.25 148.068 213.25H148.064Z" fill="#D1D5DB"/>
<path d="M150.729 224.527C150.416 224.527 150.134 224.313 150.062 223.997C149.976 223.625 150.203 223.257 150.575 223.168L284.563 191.52C284.931 191.43 285.302 191.661 285.392 192.032C285.478 192.404 285.251 192.772 284.879 192.861L150.891 224.509C150.84 224.523 150.785 224.527 150.733 224.527H150.729Z" fill="#D1D5DB"/>
<path d="M153.393 235.803C153.08 235.803 152.797 235.59 152.725 235.273C152.639 234.902 152.866 234.534 153.238 234.444L287.226 202.793C287.594 202.703 287.965 202.934 288.055 203.305C288.144 203.677 287.914 204.045 287.542 204.134L153.554 235.786C153.503 235.8 153.448 235.803 153.396 235.803H153.393Z" fill="#D1D5DB"/>
<path d="M156.055 247.076C155.742 247.076 155.46 246.863 155.387 246.546C155.301 246.175 155.528 245.806 155.9 245.717L289.888 214.066C290.256 213.976 290.628 214.207 290.717 214.578C290.803 214.95 290.576 215.318 290.204 215.407L156.216 247.059C156.165 247.072 156.11 247.076 156.058 247.076H156.055Z" fill="#D1D5DB"/>
<path d="M275.31 160.735C279.036 160.735 282.056 157.715 282.056 153.989C282.056 150.264 279.036 147.244 275.31 147.244C271.585 147.244 268.564 150.264 268.564 153.989C268.564 157.715 271.585 160.735 275.31 160.735Z" fill="#D1D5DB"/>
<path d="M275.31 147.932C274.932 147.932 274.622 147.622 274.622 147.244V35.2096C274.622 34.8312 274.932 34.5216 275.31 34.5216C275.688 34.5216 275.998 34.8312 275.998 35.2096V147.244C275.998 147.622 275.688 147.932 275.31 147.932Z" fill="#D1D5DB"/>
<path d="M60.5671 116.191C64.2928 116.191 67.313 113.171 67.313 109.445C67.313 105.719 64.2928 102.699 60.5671 102.699C56.8415 102.699 53.8213 105.719 53.8213 109.445C53.8213 113.171 56.8415 116.191 60.5671 116.191Z" fill="#D1D5DB"/>
<path d="M60.565 103.387C60.1866 103.387 59.877 103.077 59.877 102.699V35.2096C59.877 34.8312 60.1866 34.5216 60.565 34.5216C60.9434 34.5216 61.253 34.8312 61.253 35.2096V102.699C61.253 103.077 60.9434 103.387 60.565 103.387Z" fill="#D1D5DB"/>
<path d="M307.54 35.8976H39.3023C38.9239 35.8976 38.6143 35.588 38.6143 35.2096C38.6143 34.8312 38.9239 34.5216 39.3023 34.5216H307.54C307.918 34.5216 308.228 34.8312 308.228 35.2096C308.228 35.588 307.918 35.8976 307.54 35.8976Z" fill="#D1D5DB"/>
<g opacity="0.25">
<path d="M35.8345 80.989V69.957C35.8345 64.281 40.4338 59.6817 46.1098 59.6817H286.363C292.039 59.6817 296.638 64.281 296.638 69.957V82.3341H299.349C307.553 82.3341 314.98 78.9732 320.36 73.5311C325.741 68.0925 329.064 60.5795 329.064 52.2788C329.064 35.6808 315.758 22.2235 299.349 22.2235H44.6478C36.4434 22.2235 29.0164 25.5844 23.6397 31.0265C18.2596 36.4686 14.9365 43.9781 14.9365 52.2788C14.9365 65.7739 23.7292 77.1913 35.8311 80.989H35.8345Z" fill="#D1D5DB"/>
</g>
<g opacity="0.25">
<path d="M30.4076 198.881C31.8077 197.381 33.6516 196.263 35.8016 195.754L35.836 195.747V143.79C31.1748 145.252 27.0089 147.842 23.6446 151.248C18.2644 156.69 14.9414 164.199 14.9414 172.5C14.9414 183.876 21.1919 193.78 30.4076 198.881Z" fill="#D1D5DB"/>
</g>
<g opacity="0.25">
<path d="M299.35 262.666H296.64V299.512C296.64 305.188 292.04 309.79 286.364 309.79H46.1112C40.4352 309.79 35.836 305.188 35.836 299.512V264.011C31.1748 265.473 27.0089 268.063 23.6446 271.469C18.2644 276.907 14.9414 284.42 14.9414 292.721C14.9414 309.319 28.2439 322.776 44.6527 322.776H299.35C307.555 322.776 314.982 319.416 320.362 313.973C325.742 308.531 329.065 301.022 329.065 292.721C329.065 276.12 315.759 262.666 299.35 262.666Z" fill="#D1D5DB"/>
</g>
<g opacity="0.25">
<path d="M314.801 146.824L310.731 200.268C314.357 198.744 317.622 196.518 320.357 193.752C325.737 188.31 329.06 180.801 329.06 172.5C329.06 161.626 323.349 152.101 314.798 146.824H314.801Z" fill="#D1D5DB"/>
</g>
<path d="M129.409 52.8258C127.07 52.8258 125.164 50.92 125.164 48.5808C125.164 46.2416 127.07 44.3359 129.409 44.3359C131.748 44.3359 133.654 46.2416 133.654 48.5808C133.654 50.92 131.748 52.8258 129.409 52.8258ZM129.409 45.7119C127.827 45.7119 126.54 46.9984 126.54 48.5808C126.54 50.1632 127.827 51.4498 129.409 51.4498C130.991 51.4498 132.278 50.1632 132.278 48.5808C132.278 46.9984 130.991 45.7119 129.409 45.7119Z" fill="#D1D5DB"/>
<path d="M312.741 271.08C309.077 271.08 306.095 268.098 306.095 264.434C306.095 260.77 309.077 257.788 312.741 257.788C316.404 257.788 319.387 260.77 319.387 264.434C319.387 268.098 316.404 271.08 312.741 271.08ZM312.741 259.164C309.834 259.164 307.471 261.527 307.471 264.434C307.471 267.341 309.834 269.704 312.741 269.704C315.648 269.704 318.011 267.341 318.011 264.434C318.011 261.527 315.648 259.164 312.741 259.164Z" fill="#D1D5DB"/>
<path d="M25.081 180.326C22.7315 180.326 20.8223 178.417 20.8223 176.067C20.8223 173.718 22.7315 171.809 25.081 171.809C27.4305 171.809 29.3397 173.718 29.3397 176.067C29.3397 178.417 27.4305 180.326 25.081 180.326ZM25.081 173.188C23.4917 173.188 22.1983 174.481 22.1983 176.071C22.1983 177.66 23.4917 178.953 25.081 178.953C26.6703 178.953 27.9637 177.66 27.9637 176.071C27.9637 174.481 26.6703 173.188 25.081 173.188Z" fill="#D1D5DB"/>
</svg>
