<svg width="164" height="48" viewBox="0 0 164 48" fill="none" xmlns="http://www.w3.org/2000/svg">
<rect width="164" height="48" rx="4" fill="#33CC99"/>
<g clip-path="url(#clip0_2573_11308)">
<path d="M22.7688 10.2371L38.627 19.3552L35.2279 22.7542L22.7688 10.2371ZM19.4833 9.5L34.0401 24L19.4845 38.5C18.7438 38.1725 18.2363 37.4439 18.2363 36.5969C18.2363 36.5691 18.2363 36.5413 18.2375 36.5147V36.5183V11.4829C18.2363 11.4599 18.2363 11.4321 18.2363 11.4043C18.2363 10.5573 18.7438 9.82867 19.4712 9.50604L19.4845 9.50121L19.4833 9.5ZM43.5557 22.3011C44.056 22.672 44.3762 23.2617 44.3762 23.9251C44.3762 23.9517 44.3762 23.977 44.375 24.0036V24C44.3798 24.052 44.3835 24.1136 44.3835 24.1752C44.3835 24.7987 44.0814 25.3521 43.615 25.6953L43.6101 25.6989L40.2111 27.6238L36.5305 24L40.2123 20.3182L43.5557 22.3011ZM22.7688 37.7629L35.2291 25.2458L38.6282 28.6448L22.7688 37.7629Z" fill="white"/>
</g>
<path d="M57.6715 16.5H55.6557V10.2735H57.7353C58.3454 10.2735 58.8693 10.3981 59.3071 10.6474C59.7449 10.8947 60.0804 11.2504 60.3135 11.7146C60.5486 12.1767 60.6661 12.7311 60.6661 13.3776C60.6661 14.0262 60.5476 14.5836 60.3104 15.0498C60.0753 15.516 59.7348 15.8747 59.2889 16.126C58.843 16.3753 58.3038 16.5 57.6715 16.5ZM56.5952 15.6791H57.6198C58.0941 15.6791 58.4883 15.5899 58.8024 15.4116C59.1166 15.2312 59.3517 14.9707 59.5078 14.6302C59.6639 14.2877 59.7419 13.8702 59.7419 13.3776C59.7419 12.8892 59.6639 12.4747 59.5078 12.1341C59.3537 11.7936 59.1237 11.5352 58.8176 11.3589C58.5116 11.1825 58.1316 11.0944 57.6775 11.0944H56.5952V15.6791ZM63.1163 10.2735V16.5H62.1768V10.2735H63.1163ZM68.2229 11.9092C68.1904 11.6214 68.0567 11.3984 67.8215 11.2403C67.5864 11.0802 67.2905 11.0001 66.9338 11.0001C66.6784 11.0001 66.4575 11.0407 66.271 11.1217C66.0845 11.2008 65.9396 11.3102 65.8362 11.4501C65.7349 11.5879 65.6842 11.745 65.6842 11.9213C65.6842 12.0693 65.7187 12.197 65.7876 12.3044C65.8585 12.4118 65.9508 12.502 66.0643 12.575C66.1798 12.6459 66.3034 12.7057 66.4352 12.7544C66.5669 12.801 66.6936 12.8395 66.8152 12.8699L67.4233 13.028C67.6219 13.0766 67.8256 13.1425 68.0344 13.2256C68.2431 13.3087 68.4367 13.4182 68.6151 13.554C68.7934 13.6898 68.9373 13.858 69.0468 14.0587C69.1583 14.2593 69.214 14.4995 69.214 14.7792C69.214 15.1319 69.1228 15.445 68.9404 15.7186C68.76 15.9923 68.4975 16.2081 68.1529 16.3662C67.8104 16.5243 67.3959 16.6034 66.9095 16.6034C66.4433 16.6034 66.0399 16.5294 65.6994 16.3814C65.3589 16.2335 65.0924 16.0237 64.8998 15.7521C64.7073 15.4785 64.6009 15.1542 64.5806 14.7792H65.5231C65.5413 15.0042 65.6143 15.1917 65.742 15.3417C65.8717 15.4896 66.0369 15.6001 66.2376 15.673C66.4402 15.744 66.6622 15.7795 66.9034 15.7795C67.1689 15.7795 67.405 15.7379 67.6118 15.6548C67.8205 15.5697 67.9847 15.4521 68.1043 15.3021C68.2239 15.1501 68.2837 14.9728 68.2837 14.7701C68.2837 14.5856 68.231 14.4346 68.1256 14.3171C68.0222 14.1995 67.8813 14.1022 67.703 14.0252C67.5266 13.9482 67.327 13.8803 67.104 13.8215L66.3683 13.6208C65.8697 13.485 65.4744 13.2854 65.1826 13.0219C64.8927 12.7584 64.7478 12.4098 64.7478 11.9761C64.7478 11.6173 64.8451 11.3042 65.0397 11.0366C65.2343 10.7691 65.4977 10.5613 65.8302 10.4133C66.1626 10.2634 66.5375 10.1884 66.9551 10.1884C67.3766 10.1884 67.7486 10.2623 68.0708 10.4103C68.3951 10.5583 68.6505 10.762 68.837 11.0214C69.0235 11.2788 69.1208 11.5747 69.1289 11.9092H68.2229ZM70.6791 16.5V10.2735H72.8985C73.3829 10.2735 73.7842 10.3617 74.1024 10.538C74.4207 10.7143 74.6588 10.9555 74.8169 11.2616C74.975 11.5656 75.054 11.9082 75.054 12.2892C75.054 12.6723 74.974 13.0168 74.8139 13.3229C74.6558 13.6269 74.4166 13.8681 74.0964 14.0465C73.7781 14.2228 73.3778 14.311 72.8954 14.311H71.3692V13.5144H72.8103C73.1164 13.5144 73.3647 13.4617 73.5552 13.3563C73.7457 13.2489 73.8856 13.103 73.9747 12.9185C74.0639 12.7341 74.1085 12.5243 74.1085 12.2892C74.1085 12.0541 74.0639 11.8453 73.9747 11.6629C73.8856 11.4805 73.7447 11.3376 73.5521 11.2342C73.3616 11.1309 73.1103 11.0792 72.7982 11.0792H71.6185V16.5H70.6791ZM81.9065 13.3867C81.9065 14.0516 81.7849 14.6231 81.5417 15.1015C81.2985 15.5778 80.965 15.9446 80.5414 16.2021C80.1198 16.4574 79.6405 16.5851 79.1034 16.5851C78.5642 16.5851 78.0829 16.4574 77.6592 16.2021C77.2377 15.9446 76.9052 15.5768 76.662 15.0984C76.4188 14.6201 76.2972 14.0495 76.2972 13.3867C76.2972 12.7219 76.4188 12.1514 76.662 11.6751C76.9052 11.1967 77.2377 10.8299 77.6592 10.5745C78.0829 10.3171 78.5642 10.1884 79.1034 10.1884C79.6405 10.1884 80.1198 10.3171 80.5414 10.5745C80.965 10.8299 81.2985 11.1967 81.5417 11.6751C81.7849 12.1514 81.9065 12.7219 81.9065 13.3867ZM80.9762 13.3867C80.9762 12.88 80.8941 12.4534 80.7299 12.1068C80.5678 11.7582 80.3448 11.4947 80.0611 11.3163C79.7793 11.1359 79.4601 11.0457 79.1034 11.0457C78.7446 11.0457 78.4244 11.1359 78.1426 11.3163C77.8609 11.4947 77.638 11.7582 77.4738 12.1068C77.3116 12.4534 77.2306 12.88 77.2306 13.3867C77.2306 13.8935 77.3116 14.3211 77.4738 14.6697C77.638 15.0163 77.8609 15.2798 78.1426 15.4602C78.4244 15.6386 78.7446 15.7278 79.1034 15.7278C79.4601 15.7278 79.7793 15.6386 80.0611 15.4602C80.3448 15.2798 80.5678 15.0163 80.7299 14.6697C80.8941 14.3211 80.9762 13.8935 80.9762 13.3867ZM88.4458 10.2735V16.5H87.5824L84.4175 11.9335H84.3597V16.5H83.4202V10.2735H84.2898L87.4577 14.8461H87.5155V10.2735H88.4458ZM91.0982 10.2735V16.5H90.1587V10.2735H91.0982ZM90.256 9.65023L90.9674 8.24866H91.9251L90.9826 9.65023H90.256ZM93.353 10.2735L95.0859 15.3447H95.1558L96.8888 10.2735H97.9043L95.6636 16.5H94.5782L92.3375 10.2735H93.353ZM99.1459 16.5V10.2735H103.05V11.0822H100.085V12.9793H102.846V13.785H100.085V15.6913H103.086V16.5H99.1459ZM104.647 16.5V10.2735H105.586V15.6913H108.408V16.5H104.647ZM117.456 10.2735V16.5H116.592L113.427 11.9335H113.37V16.5H112.43V10.2735H113.3L116.468 14.8461H116.525V10.2735H117.456ZM124.577 13.3867C124.577 14.0516 124.456 14.6231 124.212 15.1015C123.969 15.5778 123.636 15.9446 123.212 16.2021C122.791 16.4574 122.311 16.5851 121.774 16.5851C121.235 16.5851 120.754 16.4574 120.33 16.2021C119.908 15.9446 119.576 15.5768 119.333 15.0984C119.09 14.6201 118.968 14.0495 118.968 13.3867C118.968 12.7219 119.09 12.1514 119.333 11.6751C119.576 11.1967 119.908 10.8299 120.33 10.5745C120.754 10.3171 121.235 10.1884 121.774 10.1884C122.311 10.1884 122.791 10.3171 123.212 10.5745C123.636 10.8299 123.969 11.1967 124.212 11.6751C124.456 12.1514 124.577 12.7219 124.577 13.3867ZM123.647 13.3867C123.647 12.88 123.565 12.4534 123.401 12.1068C123.239 11.7582 123.016 11.4947 122.732 11.3163C122.45 11.1359 122.131 11.0457 121.774 11.0457C121.415 11.0457 121.095 11.1359 120.813 11.3163C120.532 11.4947 120.309 11.7582 120.145 12.1068C119.982 12.4534 119.901 12.88 119.901 13.3867C119.901 13.8935 119.982 14.3211 120.145 14.6697C120.309 15.0163 120.532 15.2798 120.813 15.4602C121.095 15.6386 121.415 15.7278 121.774 15.7278C122.131 15.7278 122.45 15.6386 122.732 15.4602C123.016 15.2798 123.239 15.0163 123.401 14.6697C123.565 14.3211 123.647 13.8935 123.647 13.3867Z" fill="white"/>
<path d="M84.3741 25.986C81.8254 25.986 79.7432 27.9801 79.7432 30.7315C79.7432 33.4605 81.8254 35.4755 84.3741 35.4755C86.9283 35.4755 89.0105 33.4605 89.0105 30.7315C89.0105 27.9801 86.9283 25.986 84.3741 25.986ZM84.3741 33.6069C82.9756 33.6069 81.7725 32.4202 81.7725 30.7315C81.7725 29.0204 82.9756 27.8546 84.3741 27.8546C85.7726 27.8546 86.9812 29.0204 86.9812 30.7315C86.9812 32.4202 85.7726 33.6069 84.3741 33.6069ZM74.2699 25.986C71.7157 25.986 69.639 27.9801 69.639 30.7315C69.639 33.4605 71.7157 35.4755 74.2699 35.4755C76.8228 35.4755 78.9008 33.4605 78.9008 30.7315C78.9008 27.9801 76.8228 25.986 74.2699 25.986ZM74.2699 33.6069C72.8701 33.6069 71.6628 32.4202 71.6628 30.7315C71.6628 29.0204 72.8701 27.8546 74.2699 27.8546C75.6684 27.8546 76.8716 29.0204 76.8716 30.7315C76.8716 32.4202 75.6684 33.6069 74.2699 33.6069ZM62.2463 27.4405V29.4569H66.9302C66.7932 30.5836 66.4269 31.412 65.8653 31.9893C65.1817 32.6865 64.1169 33.4605 62.2463 33.4605C59.3639 33.4605 57.1067 31.0689 57.1067 28.1056C57.1067 25.1423 59.3639 22.7508 62.2463 22.7508C63.8049 22.7508 64.9389 23.3769 65.7758 24.1885L67.158 22.7675C65.9874 21.6184 64.4302 20.7357 62.2463 20.7357C58.2936 20.7357 54.9717 24.0421 54.9717 28.1056C54.9717 32.1692 58.2936 35.4755 62.2463 35.4755C64.3827 35.4755 65.9874 34.756 67.2489 33.4061C68.5416 32.0771 68.9445 30.2085 68.9445 28.6997C68.9445 28.2311 68.9065 27.8002 68.8387 27.4405H62.2463ZM111.412 29.0037C111.031 27.9425 109.855 25.986 107.46 25.986C105.086 25.986 103.109 27.909 103.109 30.7315C103.109 33.3894 105.065 35.4755 107.687 35.4755C109.808 35.4755 111.031 34.1466 111.534 33.3726L109.961 32.2947C109.436 33.084 108.721 33.6069 107.687 33.6069C106.661 33.6069 105.924 33.123 105.452 32.1692L111.625 29.5434L111.412 29.0037ZM105.118 30.5836C105.065 28.7541 106.501 27.817 107.529 27.817C108.335 27.817 109.018 28.2311 109.246 28.8238L105.118 30.5836ZM100.101 35.1869H102.13V21.2419H100.101V35.1869ZM96.7775 27.043H96.7097C96.2539 26.488 95.3845 25.986 94.283 25.986C91.9716 25.986 89.8583 28.0722 89.8583 30.7468C89.8583 33.4061 91.9716 35.4755 94.283 35.4755C95.3845 35.4755 96.2539 34.9693 96.7097 34.3976H96.7775V35.0781C96.7775 36.8923 95.8348 37.8671 94.3142 37.8671C93.0744 37.8671 92.3053 36.9467 91.9879 36.1728L90.2232 36.93C90.7318 38.1878 92.0788 39.7357 94.3142 39.7357C96.6934 39.7357 98.701 38.2966 98.701 34.795V26.2747H96.7775V27.043ZM94.4566 33.6069C93.0581 33.6069 91.8875 32.4035 91.8875 30.7468C91.8875 29.0748 93.0581 27.8546 94.4566 27.8546C95.8348 27.8546 96.9213 29.0748 96.9213 30.7468C96.9213 32.4035 95.8348 33.6069 94.4566 33.6069ZM120.913 21.2419H116.059V35.1869H118.083V29.9031H120.913C123.161 29.9031 125.365 28.2311 125.365 25.5718C125.365 22.9139 123.155 21.2419 120.913 21.2419ZM120.966 27.9634H118.083V23.1817H120.966C122.477 23.1817 123.34 24.4716 123.34 25.5718C123.34 26.6512 122.477 27.9634 120.966 27.9634ZM133.476 25.9595C132.014 25.9595 130.493 26.6233 129.868 28.0945L131.664 28.8684C132.051 28.0945 132.761 27.8435 133.513 27.8435C134.563 27.8435 135.628 28.4919 135.644 29.6368V29.7832C135.278 29.5657 134.494 29.2435 133.529 29.2435C131.595 29.2435 129.624 30.3382 129.624 32.3812C129.624 34.2498 131.208 35.4532 132.989 35.4532C134.351 35.4532 135.103 34.8215 135.575 34.0866H135.644V35.1646H137.599V29.8153C137.599 27.3428 135.803 25.9595 133.476 25.9595ZM133.232 33.6013C132.57 33.6013 131.648 33.2639 131.648 32.4202C131.648 31.3409 132.798 30.9267 133.794 30.9267C134.685 30.9267 135.103 31.1289 135.644 31.3952C135.485 32.6865 134.404 33.6013 133.232 33.6013ZM144.72 26.2649L142.394 32.31H142.324L139.919 26.2649H137.737L141.351 34.7127L139.289 39.4136H141.403L146.972 26.2649H144.72ZM126.477 35.1869H128.506V21.2419H126.477V35.1869Z" fill="white"/>
<defs>
<clipPath id="clip0_2573_11308">
<rect width="29" height="29" fill="white" transform="translate(17.0283 9.5)"/>
</clipPath>
</defs>
</svg>
