<svg width="200" height="200" viewBox="0 0 200 200" fill="none" xmlns="http://www.w3.org/2000/svg">
<path d="M33.6001 56.4001C22.1601 79.2001 25.7801 107.96 40.0761 129.076C54.3721 150.192 78.1561 163.876 103.168 168.84C121.02 172.396 140.224 171.672 156.536 163.592C172.848 155.512 185.676 139.264 186.656 121.084C187.024 114.22 185.568 106.928 180.988 101.804C173.68 93.6001 161.2 93.3281 150.216 93.6681C139.232 94.0081 126.76 93.7481 119.416 85.5961C113.764 79.3321 112.932 70.2441 109.956 62.3481C104.896 48.9281 92.6841 38.4481 78.6521 35.4841C76.3148 34.9923 73.9392 34.7046 71.5521 34.6241C56.5241 34.1121 42.4521 42.0001 34.5801 54.8001L33.6001 56.4001Z" fill="#FF8B3D" fill-opacity="0.15"/>
<path d="M179.2 181.956C179.2 182.016 143.816 182.06 100.176 182.06C56.5358 182.06 21.1318 182 21.1318 181.956C21.1318 181.912 56.5078 181.852 100.16 181.852C143.812 181.852 179.2 181.9 179.2 181.956Z" fill="#263238"/>
<path d="M162.228 20.8401H67.4678V151.084H162.228V20.8401Z" fill="#FAFAFA"/>
<path d="M146.296 87.0801H105.64V93.8481H146.296V87.0801Z" fill="#EBEBEB"/>
<path d="M109.628 92.0881C109.372 92.0881 109.121 92.0121 108.908 91.8697C108.695 91.7273 108.529 91.5249 108.431 91.2881C108.333 91.0512 108.307 90.7907 108.357 90.5393C108.407 90.2879 108.53 90.0569 108.712 89.8757C108.893 89.6944 109.124 89.571 109.375 89.521C109.627 89.471 109.887 89.4967 110.124 89.5947C110.361 89.6928 110.563 89.8589 110.706 90.0721C110.848 90.2852 110.924 90.5358 110.924 90.7921C110.924 91.1358 110.787 91.4655 110.544 91.7085C110.301 91.9516 109.972 92.0881 109.628 92.0881ZM109.628 89.5961C109.391 89.5961 109.159 89.6665 108.961 89.7983C108.764 89.9302 108.61 90.1176 108.519 90.3369C108.429 90.5561 108.405 90.7974 108.451 91.0302C108.497 91.263 108.612 91.4768 108.78 91.6446C108.947 91.8124 109.161 91.9267 109.394 91.973C109.627 92.0193 109.868 91.9956 110.087 91.9047C110.307 91.8139 110.494 91.6601 110.626 91.4628C110.758 91.2654 110.828 91.0334 110.828 90.7961C110.827 90.4785 110.7 90.1743 110.475 89.9501C110.25 89.726 109.946 89.6001 109.628 89.6001V89.5961Z" fill="#263238"/>
<path d="M137.736 90.904C137.736 90.96 132.336 91.0081 125.676 91.0081C119.016 91.0081 113.6 90.96 113.6 90.904C113.6 90.848 119 90.8 125.664 90.8C132.328 90.8 137.736 90.844 137.736 90.904Z" fill="#263238"/>
<path d="M162.228 32.196H67.4678V56.472H162.228V32.196Z" fill="#263238"/>
<path d="M162.228 20.8401H67.4678V27.9201H162.228V20.8401Z" fill="#455A64"/>
<path d="M70.8158 25.332C71.3415 25.332 71.7678 24.9058 71.7678 24.38C71.7678 23.8542 71.3415 23.428 70.8158 23.428C70.29 23.428 69.8638 23.8542 69.8638 24.38C69.8638 24.9058 70.29 25.332 70.8158 25.332Z" fill="#263238"/>
<path d="M78.9001 24.1761C78.9001 24.3644 78.8443 24.5485 78.7396 24.705C78.635 24.8616 78.4864 24.9836 78.3124 25.0557C78.1385 25.1277 77.947 25.1466 77.7624 25.1098C77.5777 25.0731 77.4081 24.9824 77.2749 24.8493C77.1418 24.7161 77.0511 24.5465 77.0144 24.3618C76.9777 24.1772 76.9965 23.9858 77.0686 23.8118C77.1406 23.6379 77.2626 23.4892 77.4192 23.3846C77.5757 23.28 77.7598 23.2241 77.9481 23.2241C78.2003 23.2252 78.4418 23.3258 78.6201 23.5041C78.7984 23.6824 78.899 23.924 78.9001 24.1761Z" fill="#263238"/>
<path d="M75.508 24.1761C75.508 24.3644 75.4522 24.5485 75.3476 24.705C75.243 24.8616 75.0943 24.9836 74.9203 25.0557C74.7464 25.1277 74.555 25.1466 74.3703 25.1098C74.1856 25.0731 74.016 24.9824 73.8828 24.8493C73.7497 24.7161 73.659 24.5465 73.6223 24.3618C73.5856 24.1772 73.6044 23.9858 73.6765 23.8118C73.7485 23.6379 73.8706 23.4892 74.0271 23.3846C74.1837 23.28 74.3677 23.2241 74.556 23.2241C74.8082 23.2252 75.0497 23.3258 75.228 23.5041C75.4063 23.6824 75.507 23.924 75.508 24.1761Z" fill="#263238"/>
<path d="M162.228 27.9199H67.4678V32.1959H162.228V27.9199Z" fill="#E0E0E0"/>
<path d="M100.036 72.488C100.036 72.544 96.8638 72.592 92.9518 72.592C89.0398 72.592 85.8638 72.544 85.8638 72.488C85.8638 72.432 89.0358 72.384 92.9518 72.384C96.8678 72.384 100.036 72.428 100.036 72.488Z" fill="#263238"/>
<path d="M100.036 75.812C100.036 75.872 96.8638 75.92 92.9518 75.92C89.0398 75.92 85.8638 75.872 85.8638 75.812C85.8638 75.752 89.0358 75.708 92.9518 75.708C96.8678 75.708 100.036 75.756 100.036 75.812Z" fill="#263238"/>
<path d="M93.9038 78.564C92.5732 78.6687 91.238 78.7034 89.9038 78.668C88.5629 78.7041 87.221 78.6694 85.8838 78.564C87.2211 78.461 88.5629 78.4262 89.9038 78.46C91.238 78.4269 92.5731 78.4616 93.9038 78.564Z" fill="#263238"/>
<path d="M146.476 60.6721H106.044V71.3321H146.476V60.6721Z" fill="#EBEBEB"/>
<path d="M111.728 76.4601C111.729 76.8766 111.606 77.2839 111.375 77.6305C111.144 77.9771 110.816 78.2474 110.431 78.4072C110.046 78.5669 109.623 78.6089 109.215 78.5279C108.806 78.4468 108.431 78.2464 108.136 77.9519C107.842 77.6574 107.641 77.2821 107.56 76.8736C107.479 76.4651 107.521 76.0417 107.681 75.6571C107.841 75.2725 108.111 74.9439 108.458 74.713C108.804 74.4821 109.212 74.3593 109.628 74.3601C110.185 74.3601 110.719 74.5814 111.113 74.9752C111.507 75.369 111.728 75.9032 111.728 76.4601Z" fill="#E0E0E0"/>
<path d="M146.296 74.9521C146.296 75.0081 139.524 75.0561 131.172 75.0561C122.82 75.0561 116.044 75.0081 116.044 74.9521C116.044 74.8961 122.816 74.8481 131.172 74.8481C139.528 74.8481 146.296 74.8921 146.296 74.9521Z" fill="#263238"/>
<path d="M131.728 77.9521C131.728 78.0121 128.216 78.0561 123.888 78.0561C119.56 78.0561 116.044 78.0121 116.044 77.9521C116.044 77.8921 119.556 77.8481 123.888 77.8481C128.22 77.8481 131.728 77.8961 131.728 77.9521Z" fill="#263238"/>
<path d="M146.296 81.356H138.248V82.464H146.296V81.356Z" fill="#FF8B3D"/>
<path d="M146.296 107.144H138.248V108.252H146.296V107.144Z" fill="#FF8B3D"/>
<path d="M138.248 97.2319C138.248 97.2919 131.204 97.3359 122.512 97.3359C113.82 97.3359 106.772 97.2919 106.772 97.2319C106.772 97.1719 113.82 97.1279 122.512 97.1279C131.204 97.1279 138.248 97.1759 138.248 97.2319Z" fill="#263238"/>
<path d="M138.248 99.9321C138.248 99.9921 131.204 100.036 122.512 100.036C113.82 100.036 106.772 99.9921 106.772 99.9321C106.772 99.8721 113.82 99.8281 122.512 99.8281C131.204 99.8281 138.248 99.8761 138.248 99.9321Z" fill="#263238"/>
<path d="M138.248 102.632C138.248 102.692 131.204 102.736 122.512 102.736C113.82 102.736 106.772 102.692 106.772 102.632C106.772 102.572 113.82 102.528 122.512 102.528C131.204 102.528 138.248 102.576 138.248 102.632Z" fill="#263238"/>
<path d="M116.888 107.496C116.888 107.552 114.692 107.6 111.98 107.6C109.268 107.6 107.076 107.552 107.076 107.496C107.076 107.44 109.272 107.388 111.98 107.388C114.688 107.388 116.888 107.436 116.888 107.496Z" fill="#263238"/>
<path d="M146.296 114.308H105.64V138.652H146.296V114.308Z" fill="#455A64"/>
<path d="M105.64 138.652L122.512 127.612L127.68 131.292L138.248 124.212L146.296 130.44V138.652H105.64Z" fill="#263238"/>
<path d="M128.848 125.56C130.438 125.56 131.728 124.271 131.728 122.68C131.728 121.089 130.438 119.8 128.848 119.8C127.257 119.8 125.968 121.089 125.968 122.68C125.968 124.271 127.257 125.56 128.848 125.56Z" fill="#263238"/>
<path d="M89.256 84.7361H85.02V88.9721H89.256V84.7361Z" fill="#E0E0E0"/>
<path d="M94.4118 84.7361H90.1758V88.9721H94.4118V84.7361Z" fill="#EBEBEB"/>
<path d="M99.6042 84.7361H95.3682V88.9721H99.6042V84.7361Z" fill="#EBEBEB"/>
<path d="M89.256 89.7961H85.02V94.0321H89.256V89.7961Z" fill="#EBEBEB"/>
<path d="M94.4118 89.7961H90.1758V94.0321H94.4118V89.7961Z" fill="#F5F5F5"/>
<path d="M99.6042 89.7961H95.3682V94.0321H99.6042V89.7961Z" fill="#E0E0E0"/>
<path d="M89.256 94.8601H85.02V99.0961H89.256V94.8601Z" fill="#E0E0E0"/>
<path d="M94.4118 94.8601H90.1758V99.0961H94.4118V94.8601Z" fill="#EBEBEB"/>
<path d="M99.6042 94.8601H95.3682V99.0961H99.6042V94.8601Z" fill="#E0E0E0"/>
<path d="M104.6 37.636L81.1006 37.7795L81.2441 61.2791L104.744 61.1356L104.6 37.636Z" fill="#FF8B3D"/>
<path opacity="0.2" d="M97.9 49.964C97.8242 50.0503 97.7855 50.1629 97.7923 50.2774C97.799 50.392 97.8506 50.4993 97.936 50.576C98.0214 50.6524 98.1336 50.6917 98.248 50.6854C98.3624 50.679 98.4696 50.6274 98.546 50.542C98.6224 50.4566 98.6617 50.3444 98.6553 50.23C98.6489 50.1156 98.5974 50.0084 98.512 49.932C98.4263 49.8558 98.314 49.8164 98.1994 49.8224C98.0849 49.8284 97.9773 49.8793 97.9 49.964Z" fill="black"/>
<path opacity="0.2" d="M98.9322 49.5081C98.7583 49.3801 98.5481 49.311 98.3322 49.311C98.1163 49.311 97.906 49.3801 97.7322 49.5081C97.6042 49.6081 97.5562 49.7041 97.5802 49.7241C97.6042 49.7441 97.9202 49.5601 98.3282 49.5641C98.7362 49.5681 99.0322 49.7881 99.0762 49.7361C99.1202 49.6841 99.0602 49.6001 98.9322 49.5081Z" fill="black"/>
<path opacity="0.2" d="M94.1041 50.1121C94.0057 50.0544 93.8886 50.0376 93.7779 50.0653C93.6672 50.0929 93.5718 50.1629 93.5121 50.2601C93.4823 50.3083 93.4624 50.362 93.4535 50.418C93.4446 50.4739 93.447 50.5311 93.4604 50.5862C93.4738 50.6413 93.498 50.6931 93.5316 50.7388C93.5652 50.7844 93.6075 50.8229 93.6561 50.8521C93.7544 50.9114 93.8721 50.9295 93.9837 50.9026C94.0953 50.8756 94.1917 50.8057 94.2521 50.7081C94.31 50.6091 94.3269 50.4913 94.2993 50.38C94.2716 50.2687 94.2016 50.1725 94.1041 50.1121Z" fill="black"/>
<path opacity="0.2" d="M94.4878 49.8961C94.3166 49.7655 94.107 49.6952 93.8917 49.6961C93.6766 49.6957 93.4667 49.7628 93.2917 49.8881C93.1637 49.9881 93.1158 50.0801 93.1398 50.1041C93.1638 50.1281 93.4797 49.9401 93.8917 49.9441C94.3037 49.9481 94.5918 50.1641 94.6398 50.1121C94.6878 50.0601 94.6158 50.0001 94.4878 49.8961Z" fill="black"/>
<path opacity="0.2" d="M96.968 52.0241C96.731 51.2943 96.42 50.5907 96.04 49.9241C96.2037 50.6728 96.4422 51.4031 96.752 52.1041C96.864 52.3921 96.976 52.6641 97.08 52.9361C97.135 53.0278 97.1627 53.1332 97.16 53.2401C97.16 53.3001 97.068 53.3241 96.96 53.3361C96.7335 53.3463 96.5103 53.395 96.3 53.4801C96.5227 53.5245 96.7512 53.5313 96.976 53.5001C97.0381 53.4987 97.0997 53.4907 97.16 53.4761C97.2015 53.4627 97.2394 53.4404 97.2712 53.4106C97.3031 53.3809 97.3279 53.3445 97.344 53.3041C97.3726 53.1531 97.3501 52.9969 97.28 52.8601C97.2 52.5881 97.076 52.3121 96.968 52.0241Z" fill="black"/>
<path opacity="0.1" d="M92.6919 57.4199C92.6919 57.4199 93.6199 59.5559 96.5839 59.2679V58.4999C95.2079 58.5362 93.8525 58.1601 92.6919 57.4199Z" fill="white"/>
<path opacity="0.2" d="M99.108 46.4441L99.068 46.4721H99.044C97.7778 46.9645 96.368 46.9343 95.124 46.3881C93.524 45.7441 91.7 45.5121 91.328 45.8521C90.956 46.1921 91 47.7881 89.512 48.3721C89.512 48.3721 89.848 51.3121 88.684 51.3721H88.66C88.628 50.7001 88.6 50.0761 88.6 50.0761C88.52 50.0522 88.4385 50.0335 88.356 50.0201C88.0666 49.9685 87.7696 49.9781 87.484 50.0481C87.02 50.1801 86.596 50.5561 86.632 51.5161C86.692 53.1161 87.964 53.1481 88.5 53.0561L88.9 61.2241L96.616 61.1761C96.644 60.5521 96.616 60.1081 96.616 59.5561V59.2601C93.652 59.5481 92.724 57.4121 92.724 57.4121C93.8812 58.15 95.2321 58.526 96.604 58.4921V58.5321C96.66 58.5321 99.568 58.0241 99.584 55.0801C99.572 52.8721 99.264 48.5161 99.108 46.4441ZM88 52.3561C87.9542 52.3887 87.902 52.4112 87.8468 52.4222C87.7917 52.4333 87.7349 52.4325 87.68 52.4201C87.5143 52.3472 87.3736 52.2272 87.2754 52.075C87.1773 51.9228 87.126 51.7452 87.128 51.5641C87.1153 51.3678 87.151 51.1714 87.232 50.9921C87.2584 50.9116 87.305 50.8391 87.3673 50.7817C87.4296 50.7243 87.5056 50.6838 87.588 50.6641C87.6579 50.6526 87.7295 50.6683 87.788 50.7081C87.8287 50.7392 87.8582 50.7827 87.872 50.8321C87.892 50.9161 87.872 50.9561 87.848 50.9521C87.824 50.9481 87.848 50.9081 87.82 50.8521C87.8005 50.8151 87.7686 50.786 87.7299 50.7699C87.6912 50.7539 87.6481 50.7518 87.608 50.7641C87.5455 50.7859 87.4894 50.823 87.4447 50.8718C87.4 50.9207 87.3682 50.9799 87.352 51.0441C87.2875 51.2067 87.2601 51.3816 87.272 51.5561C87.2697 51.7113 87.309 51.8644 87.3856 51.9994C87.4623 52.1344 87.5736 52.2465 87.708 52.3241C87.7928 52.3575 87.8872 52.3575 87.972 52.3241C88.028 52.2961 88.056 52.2641 88.064 52.2681C88.072 52.2721 88.08 52.3041 88 52.3561ZM98 48.6241C98.584 48.5921 98.992 48.8801 98.94 48.9761C98.888 49.0721 98.496 49.0121 98.024 49.0401C97.552 49.0681 97.16 49.1761 97.104 49.0721C97.048 48.9681 97.404 48.6521 98 48.6241ZM92.544 48.7161C92.544 48.5961 92.968 48.5401 93.456 48.5201L94.072 48.4881C94.224 48.4881 94.328 48.4881 94.36 48.5241C94.392 48.5601 94.324 48.6801 94.156 48.7721C93.9427 48.8719 93.7114 48.9277 93.476 48.9361C92.928 48.9561 92.52 48.8281 92.528 48.7161H92.544ZM94.268 50.7161C94.2076 50.8137 94.1112 50.8836 93.9996 50.9106C93.888 50.9375 93.7703 50.9194 93.672 50.8601C93.6234 50.831 93.5811 50.7924 93.5475 50.7468C93.5139 50.7011 93.4897 50.6493 93.4763 50.5942C93.4629 50.5391 93.4605 50.4819 93.4694 50.426C93.4783 50.37 93.4982 50.3163 93.528 50.2681C93.5877 50.1709 93.6831 50.1009 93.7938 50.0733C93.9045 50.0456 94.0216 50.0624 94.12 50.1201C94.2127 50.1829 94.278 50.2787 94.3025 50.388C94.327 50.4972 94.309 50.6117 94.252 50.7081L94.268 50.7161ZM94.668 50.1201C94.62 50.1721 94.328 49.9521 93.92 49.9521C93.512 49.9521 93.212 50.1641 93.168 50.1121C93.124 50.0601 93.192 49.9961 93.32 49.8961C93.495 49.7709 93.7049 49.7037 93.92 49.7041C94.1353 49.7032 94.3448 49.7735 94.516 49.9041C94.616 50.0001 94.66 50.0921 94.64 50.1121L94.668 50.1201ZM95.784 54.5441C95.24 54.3601 94.984 53.9281 95.048 53.9041C95.112 53.8801 95.376 54.1921 95.848 54.3481C96.1457 54.4158 96.4478 54.4626 96.752 54.4881C96.604 54.5807 96.4347 54.6337 96.2603 54.6421C96.0859 54.6505 95.9123 54.614 95.756 54.5361L95.784 54.5441ZM97.384 53.3121C97.3679 53.3525 97.343 53.3889 97.3112 53.4187C97.2794 53.4484 97.2415 53.4707 97.2 53.4841C97.1397 53.4987 97.078 53.5068 97.016 53.5081C96.7912 53.5393 96.5626 53.5326 96.34 53.4881C96.5503 53.403 96.7734 53.3543 97 53.3441C97.108 53.3441 97.192 53.3081 97.2 53.2481C97.2027 53.1412 97.175 53.0358 97.12 52.9441C97.016 52.6721 96.904 52.4001 96.792 52.1121C96.4822 51.4111 96.2437 50.6808 96.08 49.9321C96.46 50.5987 96.771 51.3023 97.008 52.0321C97.116 52.3201 97.22 52.5961 97.32 52.8681C97.3749 53.007 97.3833 53.16 97.344 53.3041L97.384 53.3121ZM98.584 50.5481C98.508 50.6332 98.4014 50.6847 98.2874 50.6915C98.1735 50.6982 98.0616 50.6596 97.976 50.5841C97.9337 50.5463 97.8993 50.5005 97.8747 50.4494C97.8501 50.3983 97.8358 50.3428 97.8327 50.2861C97.8295 50.2295 97.8376 50.1728 97.8563 50.1193C97.8751 50.0657 97.9042 50.0164 97.942 49.9741C97.9798 49.9318 98.0256 49.8974 98.0767 49.8728C98.1279 49.8482 98.1833 49.8339 98.24 49.8308C98.2966 49.8276 98.3533 49.8356 98.4069 49.8544C98.4604 49.8732 98.5097 49.9023 98.552 49.9401C98.6287 50.0217 98.6707 50.1298 98.6692 50.2417C98.6677 50.3536 98.6228 50.4606 98.544 50.5401L98.584 50.5481ZM99.12 49.7481C99.076 49.8001 98.784 49.5761 98.372 49.5761C97.96 49.5761 97.668 49.7881 97.624 49.7361C97.58 49.6841 97.648 49.6201 97.776 49.5201C97.9499 49.3921 98.1601 49.3231 98.376 49.3231C98.5919 49.3231 98.8022 49.3921 98.976 49.5201C99.06 49.6001 99.104 49.7041 99.08 49.7281L99.12 49.7481Z" fill="white"/>
<path opacity="0.1" d="M87.7241 52.3241C87.5897 52.2465 87.4784 52.1344 87.4017 51.9994C87.3251 51.8643 87.2858 51.7113 87.2881 51.5561C87.2763 51.3816 87.3036 51.2066 87.3681 51.0441C87.3843 50.9799 87.4161 50.9207 87.4608 50.8718C87.5055 50.8229 87.5616 50.7859 87.6241 50.7641C87.6642 50.7518 87.7073 50.7538 87.746 50.7699C87.7847 50.786 87.8166 50.815 87.8361 50.8521C87.8641 50.9081 87.8361 50.9481 87.8641 50.9521C87.8921 50.9561 87.9081 50.9161 87.8881 50.8321C87.8743 50.7827 87.8448 50.7392 87.8041 50.7081C87.7456 50.6683 87.674 50.6526 87.6041 50.6641C87.5217 50.6838 87.4457 50.7243 87.3834 50.7817C87.3211 50.8391 87.2745 50.9116 87.2481 50.9921C87.1671 51.1713 87.1314 51.3678 87.1441 51.5641C87.1421 51.7452 87.1934 51.9228 87.2915 52.075C87.3897 52.2272 87.5304 52.3472 87.6961 52.4201C87.751 52.4325 87.8078 52.4332 87.8629 52.4222C87.9181 52.4112 87.9703 52.3886 88.0161 52.3561C88.0801 52.3041 88.0881 52.2561 88.0801 52.2521C88.0721 52.2481 88.0441 52.2801 87.9881 52.3081C87.9053 52.3467 87.811 52.3524 87.7241 52.3241Z" fill="white"/>
<path opacity="0.2" d="M88.4599 44.1879C88.5039 44.1559 88.3079 43.8519 87.8999 43.7279C87.4919 43.6039 87.1559 43.7279 87.1799 43.7959C87.2039 43.8639 87.4959 43.8199 87.8399 43.9279C88.1839 44.0359 88.3999 44.2279 88.4599 44.1879Z" fill="black"/>
<path opacity="0.2" d="M88.7722 44.2801C88.6578 44.0026 88.5616 43.718 88.4842 43.4281C88.4595 43.1171 88.4059 42.8091 88.3242 42.5081C88.2007 42.8151 88.1852 43.155 88.2802 43.4721C88.3307 43.7929 88.492 44.0859 88.7362 44.3001C88.7362 44.3001 88.7642 44.3001 88.7682 44.3001C88.7722 44.3001 88.7762 44.2921 88.7722 44.2801Z" fill="black"/>
<path opacity="0.2" d="M97.9998 49.04C98.4718 49.012 98.8678 49.088 98.9158 48.976C98.9638 48.864 98.5598 48.576 97.9758 48.624C97.3918 48.672 97.0158 48.976 97.0798 49.072C97.1438 49.168 97.5318 49.06 97.9998 49.04Z" fill="black"/>
<path opacity="0.2" d="M93.4599 48.9361C93.6952 48.9277 93.9265 48.872 94.1399 48.7721C94.3079 48.6801 94.3759 48.5681 94.3439 48.5241C94.3119 48.4801 94.2079 48.4841 94.0559 48.4881L93.4399 48.5202C92.9519 48.5202 92.5319 48.5961 92.5279 48.7161C92.5239 48.8361 92.9279 48.9561 93.4599 48.9361Z" fill="black"/>
<path opacity="0.2" d="M95.02 53.8961C94.968 53.9201 95.212 54.3521 95.756 54.5361C95.9099 54.6085 96.0794 54.6413 96.2491 54.6315C96.4189 54.6218 96.5835 54.5697 96.728 54.4801C96.4238 54.4546 96.1217 54.4078 95.824 54.3401C95.348 54.1841 95.068 53.8601 95.02 53.8961Z" fill="black"/>
<path opacity="0.2" d="M99.2678 41.6001C98.7559 41.1396 98.1166 40.845 97.434 40.7551C96.7514 40.6651 96.0575 40.784 95.4438 41.0961C94.8838 41.3961 94.4078 41.8521 93.8038 42.0441C93.0798 42.2721 92.2998 42.0761 91.5438 42.0201C90.7878 41.9641 89.9038 42.1161 89.5238 42.7721C89.2798 43.1721 89.2918 43.7521 88.9598 44.1121C88.9049 44.1739 88.8416 44.2278 88.7718 44.2721C88.7718 44.2721 88.7718 44.2721 88.7718 44.2961C88.7718 44.3201 88.7718 44.2961 88.7398 44.2961C88.2718 44.5761 87.6078 44.4961 87.0638 44.6961C86.754 44.8143 86.4828 45.0158 86.2802 45.2784C86.0776 45.5409 85.9515 45.8544 85.9158 46.1841C85.8879 46.5138 85.937 46.8455 86.0591 47.153C86.1813 47.4605 86.3732 47.7354 86.6198 47.9561C86.9307 48.1746 87.2013 48.4452 87.4198 48.7561C87.5751 49.1796 87.5947 49.6409 87.4758 50.0761C87.7614 50.006 88.0584 49.9965 88.3478 50.0481C88.4303 50.0615 88.5118 50.0802 88.5918 50.1041C88.5918 50.1041 88.6198 50.7281 88.6518 51.4001H88.6758C89.8398 51.3401 89.5038 48.4001 89.5038 48.4001C90.9918 47.8161 90.9478 46.2201 91.3198 45.8801C91.6918 45.5401 93.5158 45.7721 95.1158 46.4161C96.3598 46.9622 97.7696 46.9925 99.0358 46.5001H99.0598L99.0998 46.4721L99.1998 46.4001L99.2878 46.3521C99.6123 46.1113 99.8664 45.7882 100.024 45.4161C100.303 44.779 100.38 44.0717 100.245 43.3894C100.109 42.7072 99.7686 42.0827 99.2678 41.6001Z" fill="black"/>
<path d="M162.136 20.84L162.228 20.936H67.48L67.588 20.832C67.588 69.508 67.588 114.568 67.568 151.076L67.48 150.992L162.24 151.076L67.48 151.164H67.396V151.076C67.396 114.568 67.396 69.508 67.376 20.832V20.728H67.492H162.24H162.336V20.82C162.28 97.868 162.244 150.232 162.24 151.064" fill="#263238"/>
<path d="M33.9442 112.044L34.4602 113.144C34.6752 113.791 34.9539 114.416 35.2922 115.008C35.4559 115.308 35.6681 115.578 35.9202 115.808C36.2249 116.101 36.568 116.351 36.9402 116.552C37.0136 116.582 37.0764 116.633 37.1205 116.699C37.1647 116.765 37.1883 116.843 37.1883 116.922C37.1883 117.001 37.1647 117.079 37.1205 117.145C37.0764 117.211 37.0136 117.262 36.9402 117.292C36.5962 117.376 35.5962 116.992 34.7442 116.092C33.8922 115.192 34.0242 117.144 34.0562 117.86C34.0882 118.576 34.1002 120.796 33.8882 120.984C33.5762 121.256 33.2282 120.984 33.2082 120.256C33.1882 119.528 32.9842 117.396 32.6042 117.432C32.2242 117.468 32.4642 121.112 32.4642 121.112C32.4642 121.112 32.6402 121.884 32.2042 121.944C31.4042 122.044 31.4602 118.152 31.4722 117.78C31.4722 117.524 31.0722 117.548 31.0722 117.828C31.0722 118.108 31.3842 121.456 30.5882 121.572C29.9762 121.656 30.5882 118.372 30.1442 117.708C29.7002 117.044 29.9282 120.252 29.3442 120.308C29.1282 120.332 28.9442 120.308 29.0882 118.46C29.2322 116.612 30.4242 111.46 30.4242 111.46L34.0002 112.096" fill="#FFBE9D"/>
<path d="M48.1403 84.7679C48.1403 84.7679 36.9403 95.6999 36.6763 97.1159C36.4123 98.5319 34.8003 114.224 34.8003 114.224L29.6803 113.716C29.6803 113.716 29.2003 94.3719 30.8003 92.3999C32.4003 90.4279 38.8003 83.0359 38.8003 83.0359L48.1403 84.7679Z" fill="#FFBE9D"/>
<path d="M31.28 94.4518C31.28 94.4518 31.208 94.4118 31.132 94.2958C31.024 94.1282 30.9709 93.9311 30.98 93.7318C30.9831 93.5817 31.0208 93.4343 31.0902 93.301C31.1596 93.1678 31.2587 93.0524 31.38 92.9638C31.5292 92.8506 31.7066 92.7807 31.8929 92.7616C32.0791 92.7426 32.267 92.7752 32.436 92.8558C32.617 92.945 32.7593 93.0972 32.836 93.2838C32.9063 93.4584 32.9063 93.6533 32.836 93.8278C32.8037 93.9003 32.7568 93.9653 32.6981 94.0187C32.6395 94.0722 32.5705 94.113 32.4954 94.1385C32.4203 94.164 32.3407 94.1738 32.2617 94.1671C32.1826 94.1605 32.1058 94.1376 32.036 94.0998C31.9463 94.0429 31.878 93.9579 31.8418 93.858C31.8056 93.7581 31.8036 93.649 31.836 93.5478C31.888 93.4078 31.972 93.3718 31.972 93.3798C31.972 93.3878 31.924 93.4438 31.904 93.5638C31.8836 93.6458 31.8896 93.7321 31.9212 93.8104C31.9528 93.8887 32.0084 93.9551 32.08 93.9998C32.1343 94.0251 32.193 94.0392 32.2528 94.0413C32.3126 94.0435 32.3722 94.0337 32.4281 94.0124C32.484 93.9912 32.5351 93.9589 32.5784 93.9176C32.6217 93.8763 32.6562 93.8267 32.68 93.7718C32.7308 93.6433 32.7308 93.5003 32.68 93.3718C32.6206 93.2251 32.5077 93.1064 32.364 93.0398C32.2233 92.9715 32.0667 92.9429 31.9109 92.957C31.7551 92.9711 31.6062 93.0274 31.48 93.1198C31.3689 93.1908 31.2752 93.2859 31.2059 93.3981C31.1367 93.5103 31.0936 93.6367 31.08 93.7678C31.0788 94.0104 31.1483 94.2481 31.28 94.4518Z" fill="#EB996E"/>
<path d="M71.6884 56.8599C71.6124 57.0719 70.6284 71.2079 70.6284 71.2079L76.3004 70.7759L77.7044 58.4759L71.6884 56.8599Z" fill="#455A64"/>
<path d="M70.6283 71.208L69.8643 70.988L70.9603 56.6479L71.7803 56.884L70.6283 71.208Z" fill="#263238"/>
<path d="M74.936 60.5639C75.1194 60.5639 75.268 60.4153 75.268 60.2319C75.268 60.0485 75.1194 59.8999 74.936 59.8999C74.7526 59.8999 74.604 60.0485 74.604 60.2319C74.604 60.4153 74.7526 60.5639 74.936 60.5639Z" fill="#263238"/>
<path d="M68.7163 78.2158L78.7163 80.8118L77.1363 68.9638L76.9323 68.3958L73.2683 67.8318L73.7043 65.1278C73.7583 64.8284 73.8737 64.5433 74.0432 64.2907C74.2128 64.038 74.4328 63.8232 74.6894 63.6597C74.9461 63.4963 75.2338 63.3877 75.5344 63.3409C75.8351 63.2941 76.1422 63.3101 76.4363 63.3878L77.6363 63.7078C78.0635 63.8187 78.4625 64.0186 78.8071 64.2943C79.1518 64.57 79.4343 64.9154 79.6363 65.3078C80.3283 66.6678 81.0083 68.1558 80.9443 68.0278L86.3043 82.5718C86.7718 83.5041 86.9644 84.5501 86.8596 85.5878C86.7548 86.6254 86.3568 87.6119 85.7123 88.4318C83.9843 90.6758 79.8123 89.1158 77.8483 88.7358L65.0483 85.9158L68.7163 78.2158Z" fill="#FFBE9D"/>
<path d="M48.764 63.7759C48.8036 63.891 48.8096 64.0149 48.7812 64.1332C48.7529 64.2515 48.6914 64.3593 48.604 64.4439C48.5147 64.5253 48.4037 64.5791 48.2845 64.599C48.1653 64.6188 48.0429 64.6039 47.932 64.5559C47.508 64.3719 47.428 63.8119 47.484 63.3559C47.54 62.8999 47.668 62.4079 47.452 61.9999C47.2496 61.7136 46.9976 61.4657 46.708 61.2679C46.4816 61.0602 46.3061 60.8031 46.1951 60.5167C46.0841 60.2302 46.0406 59.9219 46.068 59.6159C46.1033 59.3113 46.222 59.0223 46.4112 58.7808C46.6004 58.5394 46.8526 58.355 47.14 58.2479C47.732 58.0439 48.484 58.1879 48.908 57.7319C49.212 57.3959 49.204 56.8799 49.436 56.4879C49.792 55.8839 50.612 55.7479 51.312 55.8039C52.012 55.8599 52.732 56.0439 53.408 55.8399C53.968 55.6679 54.412 55.2439 54.932 54.9719C55.5 54.6725 56.1475 54.5583 56.7837 54.6454C57.4198 54.7324 58.0128 55.0164 58.4794 55.4575C58.9461 55.8985 59.263 56.4746 59.3858 57.1048C59.5085 57.7351 59.431 58.388 59.164 58.9719C58.9897 59.399 58.6713 59.7514 58.264 59.9679" fill="#263238"/>
<path d="M49.4644 75.7119L56.0884 75.1999C56.1284 74.4279 56.0884 71.4359 56.0884 71.4359C56.0884 71.4359 58.8444 71.0079 58.8884 68.2359C58.9324 65.4639 58.4444 59.1559 58.4444 59.1559C56.8781 58.4835 55.1611 58.2403 53.4697 58.4512C51.7783 58.6621 50.1736 59.3195 48.8204 60.3559L48.4204 60.6719L49.4644 75.7119Z" fill="#FFBE9D"/>
<path d="M57.7843 63.8839C57.706 63.8127 57.6591 63.7134 57.6538 63.6076C57.6486 63.5019 57.6854 63.3984 57.7563 63.3199C57.7918 63.281 57.8346 63.2495 57.8822 63.2271C57.9298 63.2048 57.9814 63.192 58.034 63.1896C58.0865 63.1872 58.139 63.1952 58.1885 63.2131C58.238 63.2309 58.2835 63.2584 58.3223 63.2939C58.3612 63.3293 58.3927 63.3721 58.4151 63.4197C58.4374 63.4673 58.4501 63.5189 58.4526 63.5715C58.455 63.624 58.447 63.6765 58.4291 63.726C58.4112 63.7755 58.3838 63.821 58.3483 63.8599C58.2766 63.9376 58.177 63.9838 58.0713 63.9883C57.9656 63.9928 57.8624 63.9553 57.7843 63.8839Z" fill="#263238"/>
<path d="M58.4521 63.256C58.4081 63.304 58.1401 63.096 57.7601 63.096C57.3801 63.096 57.1041 63.288 57.0641 63.24C57.0241 63.192 57.0841 63.132 57.2041 63.04C57.368 62.9248 57.5637 62.8633 57.7641 62.864C57.9641 62.866 58.158 62.9335 58.3161 63.056C58.4321 63.148 58.4721 63.236 58.4521 63.256Z" fill="#263238"/>
<path d="M54.0802 63.5999C54.1473 63.6414 54.2007 63.702 54.2335 63.7738C54.2664 63.8457 54.2772 63.9256 54.2646 64.0036C54.2521 64.0816 54.2167 64.1541 54.163 64.2121C54.1093 64.27 54.0396 64.3107 53.9628 64.3291C53.8859 64.3474 53.8054 64.3427 53.7313 64.3153C53.6571 64.288 53.5928 64.2393 53.5463 64.1754C53.4998 64.1115 53.4733 64.0353 53.4701 63.9564C53.4668 63.8774 53.4871 63.7993 53.5282 63.7319C53.5556 63.6868 53.5917 63.6476 53.6344 63.6166C53.677 63.5856 53.7254 63.5633 53.7767 63.551C53.828 63.5387 53.8812 63.5367 53.9333 63.5451C53.9854 63.5535 54.0353 63.5721 54.0802 63.5999Z" fill="#263238"/>
<path d="M54.3322 63.6C54.2882 63.648 54.0162 63.44 53.6362 63.436C53.2562 63.432 52.9842 63.632 52.9402 63.584C52.8962 63.536 52.9642 63.476 53.0842 63.384C53.2449 63.2653 53.4405 63.2033 53.6402 63.208C53.8395 63.2106 54.0328 63.2764 54.1922 63.396C54.3122 63.484 54.3522 63.568 54.3322 63.6Z" fill="#263238"/>
<path d="M55.8524 66.7198C56.0479 66.6434 56.2547 66.6002 56.4644 66.5918C56.5644 66.5918 56.6444 66.5598 56.6524 66.5038C56.6526 66.4046 56.6278 66.307 56.5804 66.2198C56.4804 65.9678 56.3844 65.7158 56.2804 65.4478C55.9953 64.7969 55.7768 64.1188 55.6284 63.4238C55.9793 64.0418 56.2648 64.6947 56.4804 65.3718C56.5804 65.6398 56.6724 65.8958 56.7644 66.1518C56.8266 66.2754 56.8463 66.416 56.8204 66.5518C56.8055 66.5892 56.7823 66.6227 56.7525 66.6498C56.7227 66.6768 56.6871 66.6967 56.6484 66.7078C56.5936 66.7226 56.5372 66.7306 56.4804 66.7318C56.272 66.7645 56.0594 66.7604 55.8524 66.7198Z" fill="#263238"/>
<path d="M54.62 67.1399C55.2115 67.4064 55.8377 67.5882 56.48 67.6799C56.3514 67.8788 56.1593 68.0286 55.935 68.1048C55.7107 68.181 55.4672 68.1793 55.244 68.0999C54.42 67.7959 54.62 67.1399 54.62 67.1399Z" fill="white"/>
<path d="M56.0761 71.376C54.8013 71.4022 53.5477 71.047 52.4761 70.356C52.4761 70.356 53.3241 72.356 56.0761 72.092V71.376Z" fill="#EB996E"/>
<path d="M58.4764 59.8439C58.4764 59.8439 56.8764 60.7759 54.6084 59.8439C53.1284 59.2359 51.4364 59.0119 51.0924 59.3279C50.7484 59.6439 50.7764 61.1159 49.3924 61.6519C49.3924 61.6519 49.7004 64.4519 48.5924 64.4519C47.4844 64.4519 47.8444 60.0319 47.8444 60.0319L50.4804 58.4919L53.4284 57.6919L56.2724 57.8799L58.4964 58.3159L58.4764 59.8439Z" fill="#263238"/>
<path d="M48.7285 63.528C48.6805 63.528 46.8365 62.968 46.8965 64.852C46.9565 66.736 48.8325 66.288 48.8365 66.232C48.8405 66.176 48.7285 63.528 48.7285 63.528Z" fill="#FFBE9D"/>
<path d="M48.2363 65.5358C48.2363 65.5358 48.2043 65.5598 48.1523 65.5878C48.1131 65.6043 48.0709 65.6128 48.0283 65.6128C47.9857 65.6128 47.9436 65.6043 47.9043 65.5878C47.7792 65.5157 47.676 65.411 47.6056 65.285C47.5352 65.1589 47.5002 65.0161 47.5043 64.8718C47.5016 64.7094 47.5343 64.5483 47.6003 64.3998C47.6152 64.3404 47.6445 64.2856 47.6857 64.2402C47.7269 64.1949 47.7786 64.1604 47.8363 64.1398C47.8743 64.1295 47.9146 64.1321 47.9508 64.1473C47.9871 64.1626 48.0172 64.1895 48.0363 64.2238C48.0603 64.2758 48.0363 64.3158 48.0603 64.3158C48.0843 64.3158 48.1003 64.2838 48.0843 64.2078C48.0701 64.1619 48.0422 64.1214 48.0043 64.0918C47.9509 64.0542 47.885 64.0384 47.8203 64.0478C47.7436 64.0658 47.6727 64.1032 47.6146 64.1564C47.5565 64.2097 47.513 64.2769 47.4883 64.3518C47.4126 64.517 47.3796 64.6985 47.3923 64.8798C47.3879 65.048 47.4335 65.2138 47.5232 65.3561C47.6129 65.4985 47.7427 65.6111 47.8963 65.6798C47.9471 65.6918 47.9998 65.6927 48.0509 65.6824C48.102 65.672 48.1503 65.6507 48.1923 65.6198C48.2363 65.5998 48.2443 65.5398 48.2363 65.5358Z" fill="#EB996E"/>
<path d="M47.4482 57.692C47.4282 57.64 47.7402 57.504 48.1202 57.624C48.5002 57.744 48.6802 58.024 48.6362 58.06C48.5922 58.096 48.3762 57.92 48.0562 57.824C47.7362 57.728 47.4642 57.748 47.4482 57.692Z" fill="#263238"/>
<path d="M48.5201 56.5C48.5841 56.5 48.5801 56.9 48.6681 57.356C48.7561 57.812 48.9681 58.156 48.9201 58.156C48.8721 58.156 48.5641 57.892 48.4641 57.38C48.379 57.0892 48.3988 56.7777 48.5201 56.5Z" fill="#263238"/>
<path d="M56.6081 62.6359C56.5441 62.5439 56.8961 62.2359 57.4401 62.2159C57.9841 62.1959 58.3641 62.4639 58.3121 62.5599C58.2601 62.6559 57.9121 62.6079 57.4601 62.6319C57.0081 62.6559 56.6641 62.7399 56.6081 62.6359Z" fill="#263238"/>
<path d="M52.4003 62.2839C52.3403 62.1919 52.6883 61.8839 53.2363 61.8599C53.7843 61.8359 54.1563 62.1079 54.1043 62.2079C54.0523 62.3079 53.7043 62.2519 53.2523 62.2759C52.8003 62.2999 52.4363 62.3999 52.4003 62.2839Z" fill="#263238"/>
<path d="M36.8001 178.712L36.1401 181.472C36.1401 181.472 31.6321 187.328 30.2401 187.044C29.3281 186.856 30.4481 185.328 32.1641 180.876L32.5241 179.04L36.8001 178.712Z" fill="#455A64"/>
<path d="M30.0444 186.18C30.1013 186.277 30.1845 186.356 30.2844 186.408C30.4254 186.47 30.5809 186.491 30.7334 186.47C30.886 186.449 31.0296 186.386 31.1484 186.288C31.94 185.626 32.6894 184.915 33.3924 184.16C34.2284 183.284 34.9284 182.44 35.4244 181.82L36.0004 181.08L36.1564 180.876C36.174 180.851 36.1941 180.828 36.2164 180.808L36.1684 180.888L36.0244 181.096C35.9004 181.28 35.7084 181.54 35.4684 181.856C34.8456 182.68 34.1779 183.469 33.4684 184.22C32.7641 184.979 32.0062 185.686 31.2004 186.336C31.0509 186.443 30.8755 186.508 30.6924 186.524C30.5534 186.533 30.4147 186.503 30.2924 186.436C30.2129 186.397 30.1463 186.336 30.1004 186.26C30.0757 186.238 30.0565 186.211 30.0444 186.18Z" fill="#263238"/>
<path d="M30.6841 184.296C30.802 184.248 30.9304 184.233 31.0561 184.252C31.3581 184.282 31.6487 184.384 31.9041 184.548C32.1703 184.7 32.3859 184.926 32.5241 185.2C32.584 185.311 32.6169 185.434 32.6201 185.56C32.6201 185.56 32.5761 185.424 32.4721 185.224C32.3249 184.971 32.1139 184.761 31.8601 184.616C31.6167 184.461 31.3447 184.356 31.0601 184.308C30.9351 184.297 30.8095 184.293 30.6841 184.296Z" fill="#263238"/>
<path d="M34.9522 182.92C34.929 182.879 34.9115 182.834 34.9002 182.788C34.8579 182.661 34.8245 182.532 34.8002 182.4C34.7362 181.969 34.8104 181.53 35.0122 181.144C35.2092 180.755 35.5301 180.443 35.9242 180.256C36.0431 180.204 36.1681 180.166 36.2962 180.144C36.3882 180.144 36.4402 180.144 36.4402 180.144C36.2718 180.189 36.1073 180.248 35.9482 180.32C35.5792 180.517 35.2812 180.825 35.0962 181.2C34.9041 181.569 34.8249 181.986 34.8682 182.4C34.9042 182.724 34.9682 182.916 34.9522 182.92Z" fill="#263238"/>
<path d="M36.5001 179.2C36.5001 179.2 36.4201 179.6 36.3321 180.08C36.2997 180.379 36.2214 180.672 36.1001 180.948C36.1001 180.948 36.1681 180.548 36.2521 180.068C36.2881 179.767 36.3718 179.474 36.5001 179.2Z" fill="#263238"/>
<path d="M32.0723 181.268C32.2618 181.213 32.4628 181.213 32.6523 181.268C32.846 181.298 33.0267 181.384 33.1723 181.516C33.1723 181.54 32.9363 181.42 32.6323 181.348C32.3283 181.276 32.0763 181.292 32.0723 181.268Z" fill="#263238"/>
<path d="M32 181.74C32.1551 181.676 32.3281 181.669 32.488 181.72C32.6539 181.746 32.8054 181.83 32.916 181.956C32.916 181.976 32.72 181.86 32.468 181.8C32.216 181.74 32 181.764 32 181.74Z" fill="#263238"/>
<path d="M31.6201 182.332C31.7751 182.25 31.9544 182.226 32.1255 182.265C32.2966 182.304 32.4479 182.403 32.5521 182.544C32.4115 182.463 32.2626 182.397 32.1081 182.348C31.9466 182.324 31.7829 182.319 31.6201 182.332Z" fill="#263238"/>
<path d="M32.4004 181.068C32.4004 181.068 32.6084 181.012 32.9284 180.888C33.1163 180.814 33.2981 180.726 33.4724 180.624C33.5759 180.566 33.6761 180.502 33.7724 180.432C33.8644 180.364 33.9644 180.268 33.9604 180.16C33.9564 180.052 33.8244 179.996 33.7204 180.024C33.6137 180.06 33.5185 180.123 33.4444 180.208C33.2764 180.364 33.1364 180.512 33.0204 180.64C32.7884 180.9 32.6604 181.072 32.6524 181.064C32.6697 181.016 32.6954 180.971 32.7284 180.932C32.8053 180.818 32.888 180.709 32.9764 180.604C33.1005 180.445 33.2341 180.295 33.3764 180.152C33.4578 180.054 33.5663 179.981 33.6884 179.944C33.7247 179.933 33.763 179.929 33.8008 179.934C33.8385 179.939 33.8748 179.952 33.9071 179.972C33.9394 179.992 33.967 180.019 33.9879 180.051C34.0088 180.082 34.0226 180.118 34.0284 180.156C34.0209 180.227 33.9966 180.295 33.9577 180.355C33.9188 180.415 33.8662 180.464 33.8044 180.5C33.7004 180.572 33.5964 180.636 33.4964 180.692C33.3154 180.791 33.1268 180.875 32.9324 180.944C32.8015 180.988 32.6679 181.024 32.5324 181.052C32.4892 181.062 32.4449 181.068 32.4004 181.068Z" fill="#263238"/>
<path d="M32.62 181.012C32.62 181.012 32.588 180.816 32.536 180.508C32.5113 180.334 32.4656 180.163 32.4 180C32.3556 179.904 32.2991 179.814 32.232 179.732C32.164 179.656 32.056 179.588 31.976 179.64C31.896 179.692 31.88 179.812 31.892 179.912C31.9085 180.016 31.9381 180.119 31.98 180.216C32.0541 180.38 32.1526 180.533 32.272 180.668C32.484 180.9 32.644 181.012 32.636 181.024C32.5921 181.007 32.5515 180.983 32.516 180.952C32.4117 180.881 32.3151 180.799 32.228 180.708C32.0964 180.572 31.9883 180.415 31.908 180.244C31.8606 180.142 31.8282 180.035 31.812 179.924C31.7955 179.859 31.7981 179.79 31.8193 179.726C31.8406 179.663 31.8797 179.606 31.932 179.564C31.9963 179.54 32.0669 179.538 32.1322 179.559C32.1976 179.58 32.2539 179.623 32.292 179.68C32.3652 179.766 32.4246 179.863 32.468 179.968C32.5414 180.142 32.5899 180.325 32.612 180.512C32.632 180.668 32.636 180.796 32.64 180.884C32.6392 180.927 32.6325 180.97 32.62 181.012Z" fill="#263238"/>
<path d="M59.2001 180.108V176.428L52.3121 176.348L52.2241 181.728L52.6521 181.76C54.5521 181.888 62.3201 182.28 63.5961 181.908C65.0481 181.496 59.2001 180.108 59.2001 180.108Z" fill="#455A64"/>
<path d="M52.1562 181.568H52.2763L52.6162 181.596L53.8682 181.664C54.9242 181.716 56.3843 181.768 58.0002 181.788C59.6162 181.808 61.0762 181.788 62.1362 181.788L63.3883 181.752H63.7283H63.8482H63.3883H62.1362C61.0762 181.752 59.6162 181.752 58.0002 181.752C56.3843 181.752 54.9282 181.684 53.8682 181.648L52.6162 181.604H52.2763L52.1562 181.568Z" fill="#263238"/>
<path d="M61.4363 181.876C61.4927 181.668 61.5732 181.468 61.6763 181.28C61.801 181.105 61.9475 180.946 62.1123 180.808C61.8955 180.88 61.715 181.034 61.6083 181.236C61.4735 181.42 61.4121 181.649 61.4363 181.876Z" fill="#263238"/>
<path d="M59.4164 180.8C59.4364 180.8 59.5364 180.696 59.6364 180.54C59.7364 180.384 59.8084 180.244 59.7884 180.232C59.7684 180.22 59.6684 180.336 59.5684 180.496C59.4684 180.656 59.3964 180.8 59.4164 180.8Z" fill="#263238"/>
<path d="M58.8643 180.516C58.8643 180.516 58.9883 180.46 59.1083 180.356C59.2283 180.252 59.3123 180.152 59.2963 180.136C59.2803 180.12 59.1723 180.188 59.0523 180.292C58.9323 180.396 58.8483 180.5 58.8643 180.516Z" fill="#263238"/>
<path d="M58.52 179.86C58.52 179.884 58.68 179.908 58.876 179.912C58.9969 179.926 59.1195 179.915 59.236 179.88C59.236 179.856 59.076 179.832 58.88 179.828C58.7591 179.811 58.636 179.822 58.52 179.86Z" fill="#263238"/>
<path d="M58.4004 179.4C58.5176 179.482 58.6574 179.525 58.8004 179.524C58.9359 179.548 59.0755 179.53 59.2004 179.472C59.0683 179.449 58.9344 179.438 58.8004 179.44C58.6687 179.413 58.5347 179.4 58.4004 179.4Z" fill="#263238"/>
<path d="M59.6562 180.22C59.8033 180.244 59.9532 180.244 60.1003 180.22C60.2602 180.2 60.4181 180.167 60.5722 180.12C60.6671 180.095 60.7585 180.059 60.8443 180.012C60.8972 179.982 60.9372 179.934 60.9563 179.876C60.9637 179.843 60.9617 179.81 60.9503 179.778C60.9389 179.747 60.9188 179.72 60.8922 179.7C60.7248 179.612 60.5318 179.586 60.3473 179.627C60.1628 179.668 59.9987 179.773 59.8843 179.924C59.816 180.01 59.7657 180.11 59.7362 180.216C59.7162 180.292 59.7162 180.336 59.7362 180.336C59.7838 180.2 59.8527 180.074 59.9403 179.96C60.0481 179.844 60.1868 179.76 60.3403 179.72C60.4262 179.692 60.5167 179.682 60.6066 179.689C60.6966 179.697 60.7841 179.722 60.8643 179.764C60.9363 179.816 60.9083 179.9 60.8283 179.944C60.7482 179.987 60.6637 180.022 60.5763 180.048C60.4277 180.098 60.2751 180.135 60.1203 180.16C59.8283 180.208 59.6562 180.208 59.6562 180.22Z" fill="#263238"/>
<path d="M59.7723 180.244C59.8281 180.152 59.8481 180.042 59.8283 179.936C59.8144 179.821 59.7748 179.71 59.7123 179.612C59.6755 179.545 59.6224 179.489 59.5581 179.449C59.4938 179.408 59.4202 179.384 59.3443 179.38C59.2994 179.39 59.2598 179.416 59.2337 179.454C59.2077 179.492 59.1972 179.538 59.2043 179.584C59.2155 179.655 59.2414 179.723 59.2803 179.784C59.3371 179.881 59.4057 179.971 59.4843 180.052C59.5513 180.134 59.638 180.197 59.7363 180.236C59.7363 180.236 59.6483 180.156 59.5283 180.012C59.4578 179.929 59.3961 179.839 59.3443 179.744C59.2883 179.652 59.2483 179.484 59.3443 179.464C59.4403 179.444 59.5683 179.564 59.6363 179.656C59.6967 179.742 59.7376 179.84 59.7563 179.944C59.7701 180.043 59.7755 180.144 59.7723 180.244Z" fill="#263238"/>
<path d="M52.3203 179.684C52.3203 179.684 52.5203 179.684 52.8323 179.708C53.2361 179.763 53.6175 179.926 53.9363 180.18C54.2492 180.441 54.4844 180.783 54.6163 181.168C54.7203 181.468 54.7243 181.664 54.7403 181.664C54.7563 181.664 54.7403 181.612 54.7403 181.524C54.7129 181.251 54.6321 180.986 54.5023 180.745C54.3726 180.503 54.1966 180.29 53.9843 180.116C53.6558 179.848 53.2545 179.685 52.8323 179.648C52.6994 179.634 52.5653 179.634 52.4323 179.648C52.3937 179.656 52.3561 179.668 52.3203 179.684Z" fill="#263238"/>
<path d="M53.0724 176.828C52.9951 177.768 52.971 178.713 53.0004 179.656C53.0831 178.716 53.1071 177.771 53.0724 176.828Z" fill="#263238"/>
<path d="M55.6284 181.044C55.957 181.124 56.2944 181.161 56.6324 181.156C56.9699 181.175 57.3085 181.152 57.6404 181.088C57.6404 181.064 57.1884 181.088 56.6324 181.088C56.0764 181.088 55.6284 181.02 55.6284 181.044Z" fill="#263238"/>
<path d="M54.2764 181.024C54.2764 181.024 54.3124 181.12 54.3564 181.224C54.4004 181.328 54.4244 181.42 54.4484 181.416C54.4724 181.412 54.4844 181.308 54.4484 181.188C54.4124 181.068 54.2924 181.008 54.2764 181.024Z" fill="#263238"/>
<path d="M53.7764 180.4C53.7764 180.4 53.8044 180.488 53.8724 180.56C53.9404 180.632 54.0124 180.68 54.0324 180.664C54.0524 180.648 54.0044 180.576 53.9324 180.504C53.8604 180.432 53.7924 180.368 53.7764 180.4Z" fill="#263238"/>
<path d="M53.0522 180.084C53.0522 180.108 53.1482 180.108 53.2482 180.144C53.3482 180.18 53.4202 180.236 53.4402 180.22C53.4602 180.204 53.4002 180.112 53.2762 180.068C53.1522 180.024 53.0442 180.064 53.0522 180.084Z" fill="#263238"/>
<path d="M52.5361 179.94C52.5361 179.964 52.5641 180 52.6201 180.02C52.6761 180.04 52.7321 180.044 52.7401 180.02C52.7481 179.996 52.7121 179.964 52.6521 179.94C52.5921 179.916 52.5441 179.92 52.5361 179.94Z" fill="#263238"/>
<path d="M63.8963 107.064L60.6803 178.524L49.9523 178.748L51.7363 118.924L39.6683 179.204H29.4683L43.0883 107.064" fill="#263238"/>
<path d="M32.0363 178.172C32.0923 178.172 32.1163 178.32 32.0883 178.484C32.0603 178.648 31.9923 178.772 31.9363 178.764C31.8803 178.756 31.8563 178.612 31.8843 178.448C31.9123 178.284 32.0003 178.16 32.0363 178.172Z" fill="#455A64"/>
<path d="M32.4281 175.832C32.4841 175.832 32.4881 176.112 32.4281 176.432C32.3681 176.752 32.2841 177.012 32.2281 177C32.1721 176.988 32.1681 176.724 32.2281 176.4C32.2881 176.076 32.3721 175.824 32.4281 175.832Z" fill="#455A64"/>
<path d="M32.8202 173.492C32.8762 173.492 32.8802 173.772 32.8202 174.096C32.7602 174.42 32.6762 174.672 32.6202 174.66C32.5642 174.648 32.5602 174.384 32.6202 174.06C32.6802 173.736 32.7642 173.484 32.8202 173.492Z" fill="#455A64"/>
<path d="M33.2002 171.152C33.2562 171.152 33.2562 171.432 33.2002 171.756C33.1442 172.08 33.0561 172.332 32.9961 172.32C32.9361 172.308 32.9401 172.044 32.9961 171.72C33.0521 171.396 33.1562 171.144 33.2002 171.152Z" fill="#455A64"/>
<path d="M33.6004 168.8C33.6564 168.8 33.6604 169.08 33.6004 169.4C33.5404 169.72 33.4564 169.98 33.4004 169.968C33.3444 169.956 33.3404 169.692 33.4004 169.368C33.4604 169.044 33.5524 168.8 33.6004 168.8Z" fill="#455A64"/>
<path d="M34.0003 166.472C34.0563 166.472 34.0603 166.752 34.0003 167.072C33.9403 167.392 33.8563 167.652 33.8003 167.64C33.7443 167.628 33.7403 167.364 33.8003 167.04C33.8603 166.716 33.9483 166.46 34.0003 166.472Z" fill="#455A64"/>
<path d="M34.4003 164.132C34.4563 164.132 34.4603 164.412 34.4003 164.732C34.3403 165.052 34.2563 165.312 34.1963 165.3C34.1363 165.288 34.1403 165.024 34.1963 164.7C34.2523 164.376 34.3443 164.12 34.4003 164.132Z" fill="#455A64"/>
<path d="M34.8002 161.792C34.8562 161.792 34.8602 162.072 34.8002 162.396C34.7402 162.72 34.6562 162.972 34.6002 162.964C34.5442 162.956 34.5402 162.684 34.6002 162.36C34.6602 162.036 34.7402 161.78 34.8002 161.792Z" fill="#455A64"/>
<path d="M35.2001 159.452C35.2561 159.452 35.2561 159.732 35.2001 160.056C35.1441 160.38 35.0521 160.632 34.9961 160.62C34.9401 160.608 34.9401 160.344 34.9961 160.02C35.0521 159.696 35.1401 159.444 35.2001 159.452Z" fill="#455A64"/>
<path d="M35.6001 157.112C35.6561 157.112 35.6561 157.392 35.6001 157.716C35.5441 158.04 35.4521 158.292 35.3961 158.284C35.3401 158.276 35.3361 158.004 35.3961 157.68C35.4561 157.356 35.5401 157.104 35.6001 157.112Z" fill="#455A64"/>
<path d="M36.0004 154.772C36.0604 154.772 36.0604 155.052 36.0004 155.376C35.9404 155.7 35.8524 155.952 35.7964 155.944C35.7404 155.936 35.7404 155.664 35.7964 155.34C35.8524 155.016 35.9404 154.764 36.0004 154.772Z" fill="#455A64"/>
<path d="M36.4002 152.436C36.4602 152.436 36.4602 152.716 36.4002 153.036C36.3402 153.356 36.2562 153.6 36.2002 153.6C36.1442 153.6 36.1442 153.32 36.2002 152.996C36.2562 152.672 36.3442 152.424 36.4002 152.436Z" fill="#455A64"/>
<path d="M36.8002 150.096C36.8562 150.096 36.8562 150.376 36.8002 150.7C36.7442 151.024 36.6522 151.276 36.5962 151.264C36.5402 151.252 36.5402 150.984 36.5962 150.664C36.6522 150.344 36.7522 150.088 36.8002 150.096Z" fill="#455A64"/>
<path d="M37.2001 147.76C37.2561 147.76 37.2561 148.036 37.2001 148.36C37.1441 148.684 37.0521 148.936 36.9961 148.928C36.9401 148.92 36.9401 148.648 36.9961 148.324C37.0521 148 37.1601 147.748 37.2001 147.76Z" fill="#455A64"/>
<path d="M37.6284 145.42C37.6844 145.42 37.6844 145.7 37.6284 146.024C37.5724 146.348 37.4764 146.6 37.4204 146.588C37.3644 146.576 37.3644 146.308 37.4204 145.988C37.4764 145.668 37.5724 145.412 37.6284 145.42Z" fill="#455A64"/>
<path d="M38.0401 143.084C38.0961 143.084 38.0961 143.364 38.0401 143.688C37.9841 144.012 37.8921 144.264 37.8321 144.252C37.7721 144.24 37.7761 143.972 37.8321 143.648C37.8881 143.324 38.0001 143.072 38.0401 143.084Z" fill="#455A64"/>
<path d="M38.4561 140.748C38.5121 140.748 38.5121 141.028 38.4561 141.348C38.4001 141.668 38.3041 141.924 38.2481 141.916C38.1921 141.908 38.1921 141.636 38.2481 141.312C38.3041 140.988 38.4001 140.736 38.4561 140.748Z" fill="#455A64"/>
<path d="M38.8765 138.4C38.9325 138.4 38.9325 138.68 38.8765 139C38.8205 139.32 38.7245 139.576 38.6685 139.568C38.6125 139.56 38.6125 139.288 38.6685 138.964C38.7245 138.64 38.8205 138.4 38.8765 138.4Z" fill="#455A64"/>
<path d="M39.3003 136.076C39.3563 136.076 39.3563 136.356 39.3003 136.676C39.2443 136.996 39.1483 137.252 39.0923 137.244C39.0363 137.236 39.0363 136.964 39.0923 136.64C39.1483 136.316 39.2443 136.064 39.3003 136.076Z" fill="#455A64"/>
<path d="M39.7241 133.74C39.7841 133.74 39.7801 134.02 39.7241 134.344C39.6681 134.668 39.5721 134.92 39.5161 134.908C39.4601 134.896 39.4601 134.628 39.5161 134.304C39.5721 133.98 39.6681 133.732 39.7241 133.74Z" fill="#455A64"/>
<path d="M40.1563 131.408C40.2123 131.408 40.2123 131.688 40.1563 132.008C40.1003 132.328 40.0003 132.584 39.9443 132.572C39.8883 132.56 39.8923 132.292 39.9443 131.972C39.9963 131.652 40.1003 131.396 40.1563 131.408Z" fill="#455A64"/>
<path d="M40.5924 129.072C40.6484 129.072 40.6444 129.352 40.5924 129.676C40.5404 130 40.4364 130.252 40.3804 130.24C40.3244 130.228 40.3284 129.96 40.3804 129.636C40.4324 129.312 40.5324 129.064 40.5924 129.072Z" fill="#455A64"/>
<path d="M41.0284 126.74C41.0844 126.74 41.0804 127.02 41.0284 127.344C40.9764 127.668 40.8724 127.916 40.8164 127.908C40.7604 127.9 40.7644 127.628 40.8164 127.304C40.8684 126.98 40.9724 126.732 41.0284 126.74Z" fill="#455A64"/>
<path d="M41.4723 124.4C41.5283 124.4 41.5243 124.68 41.4723 125.004C41.4203 125.328 41.3123 125.576 41.2563 125.568C41.2003 125.56 41.2043 125.288 41.2563 124.964C41.3083 124.64 41.4163 124.4 41.4723 124.4Z" fill="#455A64"/>
<path d="M41.92 122.08C41.976 122.08 41.972 122.36 41.92 122.68C41.868 123 41.764 123.256 41.708 123.244C41.652 123.232 41.656 122.964 41.708 122.64C41.76 122.316 41.864 122.068 41.92 122.08Z" fill="#455A64"/>
<path d="M42.3722 119.748C42.4282 119.748 42.4242 120.028 42.3722 120.352C42.3202 120.676 42.2122 120.924 42.1562 120.912C42.1002 120.9 42.1042 120.632 42.1562 120.312C42.2082 119.992 42.3162 119.736 42.3722 119.748Z" fill="#455A64"/>
<path d="M42.8283 117.42C42.8843 117.42 42.8803 117.7 42.8283 118.02C42.7763 118.34 42.6683 118.596 42.6123 118.584C42.5563 118.572 42.5603 118.304 42.6123 117.98C42.6643 117.656 42.7723 117.408 42.8283 117.42Z" fill="#455A64"/>
<path d="M43.2923 115.092C43.3483 115.092 43.3443 115.372 43.2923 115.696C43.2403 116.02 43.1283 116.268 43.0723 116.256C43.0163 116.244 43.0203 115.976 43.0723 115.652C43.1243 115.328 43.2363 115.08 43.2923 115.092Z" fill="#455A64"/>
<path d="M43.76 112.764C43.82 112.764 43.812 113.048 43.76 113.368C43.708 113.688 43.596 113.94 43.54 113.928C43.484 113.916 43.488 113.648 43.54 113.328C43.592 113.008 43.704 112.752 43.76 112.764Z" fill="#455A64"/>
<path d="M44.236 110.44C44.292 110.44 44.288 110.72 44.236 111.04C44.184 111.36 44.056 111.6 44 111.6C43.944 111.6 43.952 111.316 44 110.996C44.048 110.676 44.18 110.428 44.236 110.44Z" fill="#455A64"/>
<path d="M44.6002 108.688C44.6562 108.688 44.6762 108.84 44.6402 109C44.6042 109.16 44.5362 109.284 44.4802 109.272C44.4242 109.26 44.4042 109.12 44.4362 108.96C44.4682 108.8 44.5442 108.676 44.6002 108.688Z" fill="#455A64"/>
<path d="M51.8041 178.164C51.8601 178.164 51.9001 178.304 51.8921 178.468C51.8841 178.632 51.8281 178.764 51.7721 178.764C51.7161 178.764 51.6761 178.624 51.6841 178.456C51.6921 178.288 51.7441 178.16 51.8041 178.164Z" fill="#455A64"/>
<path d="M51.9 175.784C51.96 175.784 51.996 176.052 51.984 176.384C51.972 176.716 51.912 176.976 51.856 176.972C51.8 176.968 51.76 176.704 51.776 176.376C51.792 176.048 51.844 175.78 51.9 175.784Z" fill="#455A64"/>
<path d="M51.9761 173.4C52.0321 173.4 52.0721 173.672 52.0601 174C52.0481 174.328 51.9961 174.592 51.9401 174.592C51.8841 174.592 51.8441 174.324 51.8521 173.992C51.8601 173.66 51.9161 173.4 51.9761 173.4Z" fill="#455A64"/>
<path d="M52.0361 171.02C52.0921 171.02 52.1321 171.288 52.1241 171.616C52.1161 171.944 52.0641 172.212 52.0041 172.212C51.9441 172.212 51.9081 171.94 51.9161 171.612C51.9241 171.284 51.9761 171.02 52.0361 171.02Z" fill="#455A64"/>
<path d="M52.0921 168.636C52.1481 168.636 52.1881 168.908 52.1801 169.236C52.1721 169.564 52.1201 169.832 52.0641 169.828C52.0081 169.824 51.9641 169.56 51.9721 169.232C51.9801 168.904 52.0321 168.636 52.0921 168.636Z" fill="#455A64"/>
<path d="M52.1524 166.252C52.2124 166.252 52.2524 166.524 52.2404 166.852C52.2284 167.18 52.1804 167.448 52.1204 167.444C52.0604 167.44 52.0244 167.176 52.0324 166.848C52.0404 166.52 52.0964 166.252 52.1524 166.252Z" fill="#455A64"/>
<path d="M52.2325 163.872C52.2885 163.872 52.3284 164.14 52.3164 164.472C52.3044 164.804 52.2485 165.064 52.1885 165.06C52.1285 165.056 52.0965 164.792 52.1085 164.464C52.1205 164.136 52.1765 163.868 52.2325 163.872Z" fill="#455A64"/>
<path d="M52.3322 161.492C52.3882 161.492 52.4242 161.76 52.4122 162.088C52.4002 162.416 52.3402 162.684 52.2842 162.68C52.2282 162.676 52.1882 162.408 52.2042 162.08C52.2202 161.752 52.2762 161.488 52.3322 161.492Z" fill="#455A64"/>
<path d="M52.4244 159.108C52.4844 159.108 52.5204 159.38 52.5084 159.708C52.4964 160.036 52.4364 160.3 52.3804 160.3C52.3244 160.3 52.2844 160.028 52.3004 159.7C52.3164 159.372 52.3684 159.108 52.4244 159.108Z" fill="#455A64"/>
<path d="M52.5085 156.728C52.5645 156.728 52.6045 156.996 52.5925 157.328C52.5805 157.66 52.5245 157.92 52.4685 157.92C52.4125 157.92 52.3725 157.648 52.3845 157.32C52.3965 156.992 52.4525 156.724 52.5085 156.728Z" fill="#455A64"/>
<path d="M52.5803 154.344C52.6403 154.344 52.6763 154.612 52.6683 154.944C52.6603 155.276 52.6043 155.536 52.5443 155.536C52.4843 155.536 52.4483 155.264 52.4603 154.936C52.4723 154.608 52.5243 154.344 52.5803 154.344Z" fill="#455A64"/>
<path d="M52.6441 151.964C52.7001 151.964 52.7401 152.232 52.7321 152.56C52.7241 152.888 52.6721 153.156 52.6121 153.152C52.5521 153.148 52.5161 152.884 52.5241 152.556C52.5321 152.228 52.5841 151.96 52.6441 151.964Z" fill="#455A64"/>
<path d="M52.696 149.6C52.752 149.6 52.792 149.868 52.788 150.196C52.784 150.524 52.728 150.792 52.672 150.792C52.616 150.792 52.572 150.524 52.58 150.192C52.588 149.86 52.636 149.6 52.696 149.6Z" fill="#455A64"/>
<path d="M52.7364 147.2C52.7924 147.2 52.8364 147.472 52.8284 147.8C52.8204 148.128 52.7724 148.392 52.7164 148.392C52.6604 148.392 52.6164 148.124 52.6204 147.796C52.6244 147.468 52.6764 147.2 52.7364 147.2Z" fill="#455A64"/>
<path d="M52.7641 144.8C52.8201 144.8 52.8641 145.068 52.8601 145.396C52.8561 145.724 52.8001 146 52.7521 146C52.7041 146 52.6481 145.732 52.6521 145.4C52.6561 145.068 52.7041 144.8 52.7641 144.8Z" fill="#455A64"/>
<path d="M52.8004 142.432C52.8564 142.432 52.9044 142.7 52.9004 143.028C52.8964 143.356 52.8524 143.624 52.7924 143.624C52.7324 143.624 52.6924 143.356 52.6924 143.028C52.6924 142.7 52.7244 142.432 52.8004 142.432Z" fill="#455A64"/>
<path d="M52.8003 140.052C52.8603 140.052 52.9043 140.316 52.9043 140.644C52.9043 140.972 52.8563 141.24 52.8003 141.24C52.7443 141.24 52.6963 140.976 52.6963 140.644C52.6963 140.312 52.7283 140.052 52.8003 140.052Z" fill="#455A64"/>
<path d="M52.8002 137.668C52.8562 137.668 52.9042 137.932 52.9042 138.264C52.9042 138.596 52.8602 138.86 52.8042 138.86C52.7482 138.86 52.7002 138.592 52.6962 138.264C52.6922 137.936 52.7202 137.668 52.8002 137.668Z" fill="#455A64"/>
<path d="M52.7604 135.284C52.8164 135.284 52.8684 135.552 52.8684 135.88C52.8684 136.208 52.8284 136.476 52.7724 136.476C52.7164 136.476 52.6644 136.212 52.6604 135.88C52.6564 135.548 52.7044 135.284 52.7604 135.284Z" fill="#455A64"/>
<path d="M52.7282 132.904C52.7882 132.904 52.8362 133.168 52.8402 133.496C52.8442 133.824 52.8042 134.092 52.7482 134.092C52.6922 134.092 52.6402 133.828 52.6322 133.5C52.6242 133.172 52.6722 132.904 52.7282 132.904Z" fill="#455A64"/>
<path d="M52.688 130.52C52.744 130.52 52.796 130.784 52.804 131.116C52.812 131.448 52.768 131.712 52.708 131.712C52.648 131.712 52.6 131.448 52.596 131.12C52.592 130.792 52.628 130.524 52.688 130.52Z" fill="#455A64"/>
<path d="M52.6325 128.136C52.6925 128.136 52.7445 128.4 52.7525 128.732C52.7605 129.064 52.7205 129.328 52.6645 129.328C52.6085 129.328 52.5525 129.064 52.5445 128.736C52.5365 128.408 52.5765 128.14 52.6325 128.136Z" fill="#455A64"/>
<path d="M52.5481 125.752C52.6081 125.752 52.6641 126.016 52.6761 126.344C52.6881 126.672 52.6521 126.944 52.5961 126.944C52.5401 126.944 52.4801 126.684 52.4681 126.352C52.4561 126.02 52.4921 125.756 52.5481 125.752Z" fill="#455A64"/>
<path d="M52.4004 123.372C52.4564 123.372 52.5204 123.632 52.5404 123.96C52.5604 124.288 52.5404 124.56 52.4764 124.564C52.4124 124.568 52.3564 124.304 52.3324 123.976C52.3084 123.648 52.3524 123.38 52.4004 123.372Z" fill="#455A64"/>
<path d="M52.1924 121C52.2484 121 52.3244 121.256 52.3564 121.584C52.3884 121.912 52.3564 122.18 52.3124 122.188C52.2684 122.196 52.1844 121.932 52.1484 121.604C52.1124 121.276 52.1364 121.008 52.1924 121Z" fill="#455A64"/>
<path d="M51.9602 119.228C52.0202 119.228 52.0842 119.348 52.1082 119.512C52.1322 119.676 52.1082 119.816 52.0482 119.824C51.9882 119.832 51.9242 119.704 51.9002 119.54C51.8762 119.376 51.9042 119.24 51.9602 119.228Z" fill="#455A64"/>
<path d="M53.5205 107.968C53.54 108.115 53.54 108.265 53.5205 108.412C53.5205 108.692 53.5005 109.104 53.4765 109.612C53.4325 110.624 53.3605 112.012 53.2645 113.564C53.2125 114.332 53.1645 115.068 53.1205 115.74C53.119 116.343 53.0315 116.942 52.8605 117.52C52.7904 117.716 52.6802 117.896 52.537 118.047C52.3937 118.199 52.2206 118.319 52.0285 118.4C51.9245 118.443 51.813 118.465 51.7005 118.464C51.6245 118.464 51.5845 118.464 51.5845 118.444C51.7216 118.42 51.8558 118.381 51.9845 118.328C52.3301 118.148 52.5904 117.839 52.7085 117.468C52.8554 116.9 52.9253 116.315 52.9165 115.728C52.9565 115.052 53.0005 114.32 53.0445 113.552C53.1405 112.008 53.2365 110.612 53.3205 109.6C53.3605 109.096 53.3965 108.688 53.4245 108.4C53.4416 108.253 53.4737 108.108 53.5205 107.968Z" fill="#455A64"/>
<path d="M52.42 108.916C52.42 108.892 52.6 108.916 52.664 109.16C52.6822 109.229 52.6837 109.301 52.6684 109.37C52.6531 109.44 52.6214 109.505 52.576 109.56C52.514 109.626 52.4329 109.671 52.344 109.689C52.2551 109.707 52.1628 109.697 52.08 109.66C52.002 109.635 51.933 109.587 51.8817 109.523C51.8305 109.459 51.799 109.381 51.7914 109.3C51.7837 109.218 51.8002 109.136 51.8387 109.063C51.8772 108.991 51.936 108.931 52.008 108.892C52.22 108.768 52.368 108.872 52.352 108.892C52.336 108.912 52.216 108.892 52.092 109.016C52.059 109.045 52.0324 109.081 52.0138 109.121C51.9952 109.161 51.9851 109.204 51.984 109.248C51.9875 109.298 52.0057 109.346 52.0363 109.386C52.0669 109.426 52.1085 109.456 52.156 109.472C52.2017 109.492 52.2522 109.5 52.3018 109.493C52.3514 109.485 52.3979 109.464 52.436 109.432C52.4656 109.399 52.4883 109.36 52.5027 109.318C52.5171 109.276 52.523 109.232 52.52 109.188C52.508 109.016 52.4 108.944 52.42 108.916Z" fill="#455A64"/>
<path d="M42.3242 110.612C42.3242 110.58 42.6722 110.728 43.2402 110.808C43.9798 110.917 44.7351 110.813 45.4174 110.507C46.0997 110.202 46.6808 109.708 47.0922 109.084C47.4122 108.608 47.5202 108.26 47.5562 108.284C47.5139 108.604 47.3974 108.909 47.2162 109.176C46.8173 109.852 46.218 110.387 45.5013 110.708C44.7846 111.028 43.9861 111.118 43.2162 110.964C42.8957 110.917 42.5904 110.797 42.3242 110.612Z" fill="#455A64"/>
<path d="M60.1682 107.968C60.2002 107.968 60.2082 108.264 60.3482 108.704C60.5208 109.28 60.8522 109.795 61.3042 110.191C61.7563 110.588 62.3107 110.848 62.9042 110.944C63.3602 111.024 63.6522 110.992 63.6562 111.028C63.4085 111.115 63.1427 111.137 62.8842 111.092C62.2478 111.031 61.6468 110.771 61.166 110.35C60.6851 109.928 60.3487 109.367 60.2042 108.744C60.1227 108.493 60.1103 108.225 60.1682 107.968Z" fill="#455A64"/>
<path d="M66.1884 109.6L42.5404 107.964L43.3604 96.668V90.356L41.0644 93.904L33.9404 87.704L41.6084 77.704C42.9066 76.3477 44.5037 75.3136 46.2724 74.684C47.2125 74.3483 48.1988 74.1594 49.1964 74.124C51.4951 74.85 53.9617 74.85 56.2604 74.124C58.4334 74.3212 60.5829 74.7229 62.6804 75.324L71.6324 77.724L68.6844 88.72L63.2764 86.9C63.2764 86.9 66.2444 107.32 66.1884 109.6Z" fill="#FF8B3D"/>
<path d="M43.144 90.724C43.5796 89.7876 44.1378 88.9132 44.804 88.124C44.6168 88.606 44.3681 89.0618 44.064 89.48C43.8136 89.9334 43.5042 90.3517 43.144 90.724Z" fill="#263238"/>
<g opacity="0.6">
<path d="M71.308 77.844C71.308 77.9 64.676 77.948 56.508 77.948C48.34 77.948 41.708 77.9 41.708 77.844C41.708 77.788 48.336 77.74 56.508 77.74C64.68 77.74 71.308 77.788 71.308 77.844Z" fill="white"/>
</g>
<g opacity="0.6">
<path d="M69.8764 82.948C69.8764 83.008 62.7244 83.052 53.9004 83.052C45.0764 83.052 37.9204 83.008 37.9204 82.948C37.9204 82.888 45.0724 82.844 53.9204 82.844C62.7684 82.844 69.8764 82.892 69.8764 82.948Z" fill="white"/>
</g>
<g opacity="0.6">
<path d="M63.6561 88.564C63.6561 88.62 57.2561 88.668 49.3601 88.668C41.4641 88.668 35.0601 88.62 35.0601 88.564C35.0601 88.508 41.4601 88.46 49.3601 88.46C57.2601 88.46 63.6561 88.508 63.6561 88.564Z" fill="white"/>
</g>
<g opacity="0.6">
<path d="M64.4002 94.676C64.4002 94.732 59.6922 94.78 53.8842 94.78C48.0762 94.78 43.3682 94.732 43.3682 94.676C43.3682 94.62 48.0722 94.572 53.8842 94.572C59.6962 94.572 64.4002 94.616 64.4002 94.676Z" fill="white"/>
</g>
<g opacity="0.6">
<path d="M65.0204 101.016C65.0204 101.072 60.1884 101.12 54.2204 101.12C48.2524 101.12 43.4204 101.072 43.4204 101.016C43.4204 100.96 48.2524 100.912 54.2204 100.912C60.1884 100.912 65.0204 100.96 65.0204 101.016Z" fill="white"/>
</g>
<g opacity="0.6">
<path d="M66.0004 106.832C66.0004 106.888 60.7684 106.936 54.3164 106.936C47.8644 106.936 42.6284 106.888 42.6284 106.832C42.6284 106.776 47.8604 106.728 54.3164 106.728C60.7724 106.728 66.0004 106.772 66.0004 106.832Z" fill="white"/>
</g>
</svg>
