<svg width="170" height="48" viewBox="0 0 170 48" fill="none" xmlns="http://www.w3.org/2000/svg">
<rect x="0.5" y="0.5" width="169" height="47" rx="3.5" stroke="#33CC99"/>
<path d="M42.7103 24.9221C42.6781 21.2584 45.6346 19.476 45.7698 19.393C44.0954 16.8888 41.5002 16.5466 40.5882 16.5194C38.4086 16.2841 36.2943 17.8573 35.184 17.8573C34.0515 17.8573 32.3417 16.5421 30.4989 16.5807C28.1276 16.6183 25.9091 18.0267 24.6924 20.2138C22.1815 24.6732 24.0542 31.2265 26.4599 34.8311C27.6633 36.5965 29.0695 38.5676 30.91 38.4982C32.7107 38.4221 33.3833 37.3206 35.5563 37.3206C37.7094 37.3206 38.341 38.4982 40.2181 38.4539C42.1507 38.4221 43.3674 36.6806 44.5287 34.8993C45.9193 32.8759 46.4778 30.8832 46.5 30.7809C46.4546 30.765 42.7468 29.3134 42.7103 24.9221Z" fill="#33CC99"/>
<path d="M39.1643 14.1481C40.1328 12.9057 40.7955 11.2153 40.6115 9.5C39.2098 9.56366 37.4567 10.4946 36.4472 11.7098C35.5541 12.7806 34.7563 14.5358 34.9624 16.1863C36.537 16.3068 38.1537 15.3713 39.1643 14.1481Z" fill="#33CC99"/>
<path d="M58.1426 16.5H56.1269V10.2735H58.2065C58.8166 10.2735 59.3405 10.3981 59.7783 10.6474C60.2161 10.8947 60.5516 11.2504 60.7847 11.7146C61.0198 12.1767 61.1373 12.7311 61.1373 13.3776C61.1373 14.0262 61.0188 14.5836 60.7816 15.0498C60.5465 15.516 60.206 15.8747 59.7601 16.126C59.3142 16.3753 58.775 16.5 58.1426 16.5ZM57.0664 15.6791H58.091C58.5652 15.6791 58.9595 15.5899 59.2736 15.4116C59.5878 15.2312 59.8229 14.9707 59.979 14.6302C60.135 14.2877 60.2131 13.8702 60.2131 13.3776C60.2131 12.8892 60.135 12.4747 59.979 12.1341C59.8249 11.7936 59.5949 11.5352 59.2888 11.3589C58.9828 11.1825 58.6027 11.0944 58.1487 11.0944H57.0664V15.6791ZM63.5875 10.2735V16.5H62.648V10.2735H63.5875ZM68.6941 11.9092C68.6616 11.6214 68.5278 11.3984 68.2927 11.2403C68.0576 11.0802 67.7617 11.0001 67.405 11.0001C67.1496 11.0001 66.9287 11.0407 66.7422 11.1217C66.5557 11.2008 66.4108 11.3102 66.3074 11.4501C66.2061 11.5879 66.1554 11.745 66.1554 11.9213C66.1554 12.0693 66.1899 12.197 66.2588 12.3044C66.3297 12.4118 66.4219 12.502 66.5354 12.575C66.651 12.6459 66.7746 12.7057 66.9064 12.7544C67.0381 12.801 67.1648 12.8395 67.2864 12.8699L67.8945 13.028C68.0931 13.0766 68.2968 13.1425 68.5056 13.2256C68.7143 13.3087 68.9079 13.4182 69.0862 13.554C69.2646 13.6898 69.4085 13.858 69.518 14.0587C69.6294 14.2593 69.6852 14.4995 69.6852 14.7792C69.6852 15.1319 69.594 15.445 69.4116 15.7186C69.2312 15.9923 68.9687 16.2081 68.6241 16.3662C68.2816 16.5243 67.8671 16.6034 67.3806 16.6034C66.9145 16.6034 66.5111 16.5294 66.1706 16.3814C65.8301 16.2335 65.5636 16.0237 65.371 15.7521C65.1785 15.4785 65.0721 15.1542 65.0518 14.7792H65.9943C66.0125 15.0042 66.0855 15.1917 66.2132 15.3417C66.3429 15.4896 66.5081 15.6001 66.7087 15.673C66.9114 15.744 67.1334 15.7795 67.3746 15.7795C67.6401 15.7795 67.8762 15.7379 68.083 15.6548C68.2917 15.5697 68.4559 15.4521 68.5755 15.3021C68.6951 15.1501 68.7549 14.9728 68.7549 14.7701C68.7549 14.5856 68.7022 14.4346 68.5968 14.3171C68.4934 14.1995 68.3525 14.1022 68.1742 14.0252C67.9978 13.9482 67.7982 13.8803 67.5752 13.8215L66.8395 13.6208C66.3409 13.485 65.9456 13.2854 65.6538 13.0219C65.3639 12.7584 65.219 12.4098 65.219 11.9761C65.219 11.6173 65.3163 11.3042 65.5109 11.0366C65.7054 10.7691 65.9689 10.5613 66.3013 10.4133C66.6337 10.2634 67.0087 10.1884 67.4263 10.1884C67.8478 10.1884 68.2198 10.2623 68.542 10.4103C68.8663 10.5583 69.1217 10.762 69.3082 11.0214C69.4947 11.2788 69.5919 11.5747 69.6001 11.9092H68.6941ZM71.1503 16.5V10.2735H73.3697C73.8541 10.2735 74.2554 10.3617 74.5736 10.538C74.8918 10.7143 75.13 10.9555 75.2881 11.2616C75.4462 11.5656 75.5252 11.9082 75.5252 12.2892C75.5252 12.6723 75.4452 13.0168 75.2851 13.3229C75.127 13.6269 74.8878 13.8681 74.5675 14.0465C74.2493 14.2228 73.849 14.311 73.3666 14.311H71.8404V13.5144H73.2815C73.5876 13.5144 73.8359 13.4617 74.0264 13.3563C74.2169 13.2489 74.3568 13.103 74.4459 12.9185C74.5351 12.7341 74.5797 12.5243 74.5797 12.2892C74.5797 12.0541 74.5351 11.8453 74.4459 11.6629C74.3568 11.4805 74.2159 11.3376 74.0233 11.2342C73.8328 11.1309 73.5815 11.0792 73.2693 11.0792H72.0897V16.5H71.1503ZM82.3777 13.3867C82.3777 14.0516 82.2561 14.6231 82.0129 15.1015C81.7697 15.5778 81.4362 15.9446 81.0126 16.2021C80.591 16.4574 80.1117 16.5851 79.5746 16.5851C79.0354 16.5851 78.554 16.4574 78.1304 16.2021C77.7088 15.9446 77.3764 15.5768 77.1332 15.0984C76.89 14.6201 76.7684 14.0495 76.7684 13.3867C76.7684 12.7219 76.89 12.1514 77.1332 11.6751C77.3764 11.1967 77.7088 10.8299 78.1304 10.5745C78.554 10.3171 79.0354 10.1884 79.5746 10.1884C80.1117 10.1884 80.591 10.3171 81.0126 10.5745C81.4362 10.8299 81.7697 11.1967 82.0129 11.6751C82.2561 12.1514 82.3777 12.7219 82.3777 13.3867ZM81.4474 13.3867C81.4474 12.88 81.3653 12.4534 81.2011 12.1068C81.039 11.7582 80.816 11.4947 80.5323 11.3163C80.2505 11.1359 79.9313 11.0457 79.5746 11.0457C79.2158 11.0457 78.8956 11.1359 78.6138 11.3163C78.3321 11.4947 78.1091 11.7582 77.945 12.1068C77.7828 12.4534 77.7018 12.88 77.7018 13.3867C77.7018 13.8935 77.7828 14.3211 77.945 14.6697C78.1091 15.0163 78.3321 15.2798 78.6138 15.4602C78.8956 15.6386 79.2158 15.7278 79.5746 15.7278C79.9313 15.7278 80.2505 15.6386 80.5323 15.4602C80.816 15.2798 81.039 15.0163 81.2011 14.6697C81.3653 14.3211 81.4474 13.8935 81.4474 13.3867ZM88.917 10.2735V16.5H88.0536L84.8887 11.9335H84.8309V16.5H83.8914V10.2735H84.761L87.9289 14.8461H87.9867V10.2735H88.917ZM91.5693 10.2735V16.5H90.6299V10.2735H91.5693ZM90.7272 9.65023L91.4386 8.24866H92.3963L91.4538 9.65023H90.7272ZM93.8241 10.2735L95.5571 15.3447H95.627L97.36 10.2735H98.3755L96.1348 16.5H95.0494L92.8087 10.2735H93.8241ZM99.6171 16.5V10.2735H103.521V11.0822H100.557V12.9793H103.317V13.785H100.557V15.6913H103.557V16.5H99.6171ZM105.118 16.5V10.2735H106.058V15.6913H108.879V16.5H105.118ZM117.927 10.2735V16.5H117.064L113.899 11.9335H113.841V16.5H112.901V10.2735H113.771L116.939 14.8461H116.997V10.2735H117.927ZM120.166 16.5H119.169L121.409 10.2735H122.495L124.735 16.5H123.738L121.978 11.4045H121.929L120.166 16.5ZM120.333 14.0617H123.568V14.8522H120.333V14.0617Z" fill="#33CC99"/>
<path d="M68.4043 35.4692H65.7843L64.3491 31.204H59.3607L57.9936 35.4692H55.4429L60.3852 20.9483H63.4377L68.4043 35.4692ZM63.9165 29.4145L62.6187 25.6228C62.4814 25.2354 62.2241 24.3232 61.8445 22.8873H61.7984C61.6473 23.5049 61.4038 24.4171 61.0693 25.6228L59.7945 29.4145H63.9165Z" fill="#33CC99"/>
<path d="M81.1142 30.1052C81.1142 31.8859 80.6054 33.2935 79.5879 34.3268C78.6765 35.2467 77.5448 35.706 76.1938 35.706C74.7356 35.706 73.6881 35.2106 73.0501 34.2199H73.004V39.7356H70.5444V28.4456C70.5444 27.3261 70.5132 26.1771 70.4532 24.9987H72.6163L72.7536 26.6583H72.7998C73.62 25.4079 74.8648 24.7837 76.5353 24.7837C77.8413 24.7837 78.9315 25.2715 79.8036 26.248C80.6781 27.2257 81.1142 28.5111 81.1142 30.1052ZM78.6085 30.1903C78.6085 29.1712 78.3662 28.331 77.8793 27.6698C77.3475 26.9802 76.6334 26.6354 75.7381 26.6354C75.1313 26.6354 74.5799 26.8274 74.0872 27.2061C73.5935 27.588 73.2705 28.0866 73.1193 28.7042C73.0432 28.9922 73.0051 29.2279 73.0051 29.4134V31.1592C73.0051 31.9209 73.252 32.5635 73.7458 33.0884C74.2395 33.6132 74.881 33.8751 75.6701 33.8751C76.5965 33.8751 77.3175 33.5368 77.8332 32.8625C78.35 32.1871 78.6085 31.2967 78.6085 30.1903Z" fill="#33CC99"/>
<path d="M93.8472 30.1052C93.8472 31.8859 93.3385 33.2935 92.3198 34.3268C91.4095 35.2467 90.2778 35.706 88.9269 35.706C87.4686 35.706 86.4211 35.2106 85.7843 34.2199H85.7381V39.7356H83.2785V28.4456C83.2785 27.3261 83.2474 26.1771 83.1874 24.9987H85.3505L85.4878 26.6583H85.5339C86.353 25.4079 87.5978 24.7837 89.2695 24.7837C90.5743 24.7837 91.6645 25.2715 92.539 26.248C93.41 27.2257 93.8472 28.5111 93.8472 30.1052ZM91.3415 30.1903C91.3415 29.1712 91.098 28.331 90.6112 27.6698C90.0794 26.9802 89.3676 26.6354 88.4712 26.6354C87.8632 26.6354 87.3129 26.8274 86.8191 27.2061C86.3253 27.588 86.0035 28.0866 85.8523 28.7042C85.7774 28.9922 85.7381 29.2279 85.7381 29.4134V31.1592C85.7381 31.9209 85.985 32.5635 86.4765 33.0884C86.9702 33.6121 87.6117 33.8751 88.4031 33.8751C89.3295 33.8751 90.0505 33.5368 90.5662 32.8625C91.0831 32.1871 91.3415 31.2967 91.3415 30.1903Z" fill="#33CC99"/>
<path d="M108.083 31.3971C108.083 32.6323 107.63 33.6372 106.72 34.413C105.719 35.2608 104.327 35.6842 102.538 35.6842C100.886 35.6842 99.5612 35.383 98.5587 34.7796L99.1286 32.8407C100.208 33.4583 101.393 33.7682 102.684 33.7682C103.611 33.7682 104.332 33.5696 104.85 33.1746C105.365 32.7796 105.623 32.2493 105.623 31.5881C105.623 30.9988 105.41 30.5024 104.985 30.0997C104.561 29.6971 103.854 29.3229 102.866 28.977C100.178 28.0288 98.8356 26.6397 98.8356 24.8132C98.8356 23.6195 99.3063 22.6407 100.249 21.8791C101.188 21.1164 102.441 20.7356 104.007 20.7356C105.405 20.7356 106.565 20.9658 107.491 21.4252L106.877 23.3216C106.011 22.8764 105.033 22.6538 103.938 22.6538C103.073 22.6538 102.397 22.8557 101.912 23.2572C101.503 23.6162 101.297 24.0537 101.297 24.572C101.297 25.146 101.532 25.6206 102.002 25.9938C102.412 26.3386 103.156 26.7118 104.236 27.1144C105.557 27.6174 106.527 28.2055 107.151 28.8799C107.773 29.552 108.083 30.3933 108.083 31.3971Z" fill="#33CC99"/>
<path d="M116.215 26.7445H113.504V31.8281C113.504 33.1211 113.982 33.7671 114.94 33.7671C115.379 33.7671 115.744 33.731 116.032 33.659L116.1 35.4256C115.616 35.5969 114.978 35.6831 114.187 35.6831C113.216 35.6831 112.457 35.4027 111.909 34.8429C111.363 34.2821 111.089 33.3415 111.089 32.0201V26.7423H109.473V24.9965H111.089V23.0794L113.504 22.3898V24.9965H116.215V26.7445Z" fill="#33CC99"/>
<path d="M128.448 30.1478C128.448 31.7572 127.961 33.0786 126.99 34.1119C125.971 35.1757 124.619 35.706 122.933 35.706C121.309 35.706 120.016 35.1964 119.051 34.1773C118.087 33.1582 117.604 31.8718 117.604 30.3212C117.604 28.6987 118.101 27.3697 119.096 26.3364C120.089 25.302 121.43 24.7848 123.116 24.7848C124.74 24.7848 126.047 25.2944 127.033 26.3146C127.977 27.3042 128.448 28.582 128.448 30.1478ZM125.896 30.223C125.896 29.2574 125.678 28.4292 125.236 27.7385C124.72 26.9027 123.983 26.4859 123.028 26.4859C122.039 26.4859 121.288 26.9038 120.772 27.7385C120.331 28.4303 120.113 29.2716 120.113 30.2667C120.113 31.2323 120.331 32.0605 120.772 32.7501C121.304 33.5859 122.047 34.0027 123.006 34.0027C123.945 34.0027 124.682 33.5772 125.214 32.7283C125.667 32.0245 125.896 31.1876 125.896 30.223Z" fill="#33CC99"/>
<path d="M136.443 27.0446C136.199 27.002 135.94 26.9802 135.667 26.9802C134.802 26.9802 134.133 27.289 133.662 27.9077C133.253 28.4532 133.048 29.1428 133.048 29.9754V35.4692H130.589L130.612 28.2961C130.612 27.0893 130.581 25.9905 130.52 24.9998H132.662L132.752 27.0031H132.82C133.08 26.3146 133.489 25.7603 134.05 25.3446C134.598 24.9703 135.19 24.7837 135.828 24.7837C136.055 24.7837 136.26 24.799 136.443 24.8263V27.0446Z" fill="#33CC99"/>
<path d="M147.443 29.7386C147.443 30.1554 147.414 30.5067 147.353 30.7937H139.974C140.003 31.8281 140.359 32.6192 141.045 33.1648C141.666 33.6525 142.471 33.8969 143.458 33.8969C144.551 33.8969 145.547 33.7321 146.444 33.4015L146.829 35.0164C145.782 35.4485 144.545 35.6635 143.118 35.6635C141.401 35.6635 140.054 35.1855 139.073 34.2308C138.095 33.276 137.604 31.994 137.604 30.3856C137.604 28.8067 138.06 27.4919 138.973 26.4433C139.928 25.3238 141.219 24.7641 142.843 24.7641C144.439 24.7641 145.647 25.3238 146.467 26.4433C147.116 27.3326 147.443 28.4325 147.443 29.7386ZM145.097 29.1352C145.114 28.4456 144.953 27.8498 144.62 27.3468C144.194 26.6998 143.54 26.3768 142.66 26.3768C141.856 26.3768 141.202 26.6921 140.702 27.325C140.292 27.828 140.049 28.4314 139.974 29.1341L145.097 29.1352Z" fill="#33CC99"/>
</svg>
