<svg width="170" height="48" viewBox="0 0 170 48" fill="none" xmlns="http://www.w3.org/2000/svg">
<rect x="0.5" y="0.5" width="169" height="47" rx="3.5" stroke="#33CC99"/>
<g clip-path="url(#clip0_2260_13201)">
<path d="M25.7693 10.2371L41.6274 19.3552L38.2284 22.7542L25.7693 10.2371ZM22.4838 9.5L37.0406 24L22.485 38.5C21.7443 38.1725 21.2368 37.4439 21.2368 36.5969C21.2368 36.5691 21.2368 36.5413 21.238 36.5147V36.5183V11.4829C21.2368 11.4599 21.2368 11.4321 21.2368 11.4043C21.2368 10.5573 21.7443 9.82867 22.4717 9.50604L22.485 9.50121L22.4838 9.5ZM46.5562 22.3011C47.0565 22.672 47.3767 23.2617 47.3767 23.9251C47.3767 23.9517 47.3767 23.977 47.3755 24.0036V24C47.3803 24.052 47.3839 24.1136 47.3839 24.1752C47.3839 24.7987 47.0819 25.3521 46.6154 25.6953L46.6106 25.6989L43.2116 27.6238L39.531 24L43.2128 20.3182L46.5562 22.3011ZM25.7693 37.7629L38.2296 25.2458L41.6286 28.6448L25.7693 37.7629Z" fill="#33CC99"/>
</g>
<path d="M60.6712 16.5H58.6555V10.2735H60.7351C61.3451 10.2735 61.8691 10.3981 62.3069 10.6474C62.7447 10.8947 63.0801 11.2504 63.3132 11.7146C63.5483 12.1767 63.6659 12.7311 63.6659 13.3776C63.6659 14.0262 63.5473 14.5836 63.3102 15.0498C63.0751 15.516 62.7346 15.8747 62.2886 16.126C61.8427 16.3753 61.3036 16.5 60.6712 16.5ZM59.5949 15.6791H60.6195C61.0938 15.6791 61.488 15.5899 61.8022 15.4116C62.1164 15.2312 62.3515 14.9707 62.5075 14.6302C62.6636 14.2877 62.7416 13.8702 62.7416 13.3776C62.7416 12.8892 62.6636 12.4747 62.5075 12.1341C62.3535 11.7936 62.1235 11.5352 61.8174 11.3589C61.5113 11.1825 61.1313 11.0944 60.6773 11.0944H59.5949V15.6791ZM66.116 10.2735V16.5H65.1766V10.2735H66.116ZM71.2226 11.9092C71.1902 11.6214 71.0564 11.3984 70.8213 11.2403C70.5862 11.0802 70.2903 11.0001 69.9335 11.0001C69.6781 11.0001 69.4572 11.0407 69.2708 11.1217C69.0843 11.2008 68.9394 11.3102 68.836 11.4501C68.7346 11.5879 68.684 11.745 68.684 11.9213C68.684 12.0693 68.7184 12.197 68.7873 12.3044C68.8583 12.4118 68.9505 12.502 69.064 12.575C69.1795 12.6459 69.3032 12.7057 69.4349 12.7544C69.5667 12.801 69.6934 12.8395 69.815 12.8699L70.423 13.028C70.6217 13.0766 70.8254 13.1425 71.0341 13.2256C71.2429 13.3087 71.4364 13.4182 71.6148 13.554C71.7932 13.6898 71.9371 13.858 72.0465 14.0587C72.158 14.2593 72.2137 14.4995 72.2137 14.7792C72.2137 15.1319 72.1225 15.445 71.9401 15.7186C71.7597 15.9923 71.4973 16.2081 71.1527 16.3662C70.8101 16.5243 70.3957 16.6034 69.9092 16.6034C69.443 16.6034 69.0397 16.5294 68.6992 16.3814C68.3587 16.2335 68.0921 16.0237 67.8996 15.7521C67.707 15.4785 67.6006 15.1542 67.5804 14.7792H68.5228C68.5411 15.0042 68.614 15.1917 68.7417 15.3417C68.8715 15.4896 69.0366 15.6001 69.2373 15.673C69.44 15.744 69.6619 15.7795 69.9031 15.7795C70.1686 15.7795 70.4048 15.7379 70.6115 15.6548C70.8203 15.5697 70.9845 15.4521 71.104 15.3021C71.2236 15.1501 71.2834 14.9728 71.2834 14.7701C71.2834 14.5856 71.2307 14.4346 71.1253 14.3171C71.022 14.1995 70.8811 14.1022 70.7027 14.0252C70.5264 13.9482 70.3267 13.8803 70.1038 13.8215L69.368 13.6208C68.8694 13.485 68.4742 13.2854 68.1823 13.0219C67.8925 12.7584 67.7476 12.4098 67.7476 11.9761C67.7476 11.6173 67.8449 11.3042 68.0394 11.0366C68.234 10.7691 68.4975 10.5613 68.8299 10.4133C69.1623 10.2634 69.5373 10.1884 69.9548 10.1884C70.3764 10.1884 70.7483 10.2623 71.0706 10.4103C71.3949 10.5583 71.6503 10.762 71.8368 11.0214C72.0232 11.2788 72.1205 11.5747 72.1286 11.9092H71.2226ZM73.6788 16.5V10.2735H75.8982C76.3827 10.2735 76.784 10.3617 77.1022 10.538C77.4204 10.7143 77.6586 10.9555 77.8167 11.2616C77.9748 11.5656 78.0538 11.9082 78.0538 12.2892C78.0538 12.6723 77.9737 13.0168 77.8136 13.3229C77.6555 13.6269 77.4164 13.8681 77.0961 14.0465C76.7779 14.2228 76.3776 14.311 75.8952 14.311H74.369V13.5144H75.8101C76.1161 13.5144 76.3644 13.4617 76.5549 13.3563C76.7455 13.2489 76.8853 13.103 76.9745 12.9185C77.0637 12.7341 77.1083 12.5243 77.1083 12.2892C77.1083 12.0541 77.0637 11.8453 76.9745 11.6629C76.8853 11.4805 76.7445 11.3376 76.5519 11.2342C76.3614 11.1309 76.11 11.0792 75.7979 11.0792H74.6183V16.5H73.6788ZM84.9063 13.3867C84.9063 14.0516 84.7847 14.6231 84.5414 15.1015C84.2982 15.5778 83.9648 15.9446 83.5412 16.2021C83.1196 16.4574 82.6402 16.5851 82.1031 16.5851C81.564 16.5851 81.0826 16.4574 80.659 16.2021C80.2374 15.9446 79.905 15.5768 79.6618 15.0984C79.4186 14.6201 79.2969 14.0495 79.2969 13.3867C79.2969 12.7219 79.4186 12.1514 79.6618 11.6751C79.905 11.1967 80.2374 10.8299 80.659 10.5745C81.0826 10.3171 81.564 10.1884 82.1031 10.1884C82.6402 10.1884 83.1196 10.3171 83.5412 10.5745C83.9648 10.8299 84.2982 11.1967 84.5414 11.6751C84.7847 12.1514 84.9063 12.7219 84.9063 13.3867ZM83.9759 13.3867C83.9759 12.88 83.8939 12.4534 83.7297 12.1068C83.5675 11.7582 83.3446 11.4947 83.0608 11.3163C82.7791 11.1359 82.4599 11.0457 82.1031 11.0457C81.7444 11.0457 81.4241 11.1359 81.1424 11.3163C80.8607 11.4947 80.6377 11.7582 80.4735 12.1068C80.3114 12.4534 80.2303 12.88 80.2303 13.3867C80.2303 13.8935 80.3114 14.3211 80.4735 14.6697C80.6377 15.0163 80.8607 15.2798 81.1424 15.4602C81.4241 15.6386 81.7444 15.7278 82.1031 15.7278C82.4599 15.7278 82.7791 15.6386 83.0608 15.4602C83.3446 15.2798 83.5675 15.0163 83.7297 14.6697C83.8939 14.3211 83.9759 13.8935 83.9759 13.3867ZM91.4456 10.2735V16.5H90.5822L87.4172 11.9335H87.3595V16.5H86.42V10.2735H87.2895L90.4575 14.8461H90.5153V10.2735H91.4456ZM94.0979 10.2735V16.5H93.1585V10.2735H94.0979ZM93.2558 9.65023L93.9672 8.24866H94.9249L93.9824 9.65023H93.2558ZM96.3527 10.2735L98.0857 15.3447H98.1556L99.8886 10.2735H100.904L98.6633 16.5H97.5779L95.3373 10.2735H96.3527ZM102.146 16.5V10.2735H106.049V11.0822H103.085V12.9793H105.846V13.785H103.085V15.6913H106.086V16.5H102.146ZM107.647 16.5V10.2735H108.586V15.6913H111.408V16.5H107.647ZM120.456 10.2735V16.5H119.592L116.427 11.9335H116.369V16.5H115.43V10.2735H116.299L119.467 14.8461H119.525V10.2735H120.456ZM127.577 13.3867C127.577 14.0516 127.455 14.6231 127.212 15.1015C126.969 15.5778 126.636 15.9446 126.212 16.2021C125.79 16.4574 125.311 16.5851 124.774 16.5851C124.235 16.5851 123.753 16.4574 123.33 16.2021C122.908 15.9446 122.576 15.5768 122.333 15.0984C122.089 14.6201 121.968 14.0495 121.968 13.3867C121.968 12.7219 122.089 12.1514 122.333 11.6751C122.576 11.1967 122.908 10.8299 123.33 10.5745C123.753 10.3171 124.235 10.1884 124.774 10.1884C125.311 10.1884 125.79 10.3171 126.212 10.5745C126.636 10.8299 126.969 11.1967 127.212 11.6751C127.455 12.1514 127.577 12.7219 127.577 13.3867ZM126.647 13.3867C126.647 12.88 126.565 12.4534 126.4 12.1068C126.238 11.7582 126.015 11.4947 125.732 11.3163C125.45 11.1359 125.131 11.0457 124.774 11.0457C124.415 11.0457 124.095 11.1359 123.813 11.3163C123.531 11.4947 123.308 11.7582 123.144 12.1068C122.982 12.4534 122.901 12.88 122.901 13.3867C122.901 13.8935 122.982 14.3211 123.144 14.6697C123.308 15.0163 123.531 15.2798 123.813 15.4602C124.095 15.6386 124.415 15.7278 124.774 15.7278C125.131 15.7278 125.45 15.6386 125.732 15.4602C126.015 15.2798 126.238 15.0163 126.4 14.6697C126.565 14.3211 126.647 13.8935 126.647 13.3867Z" fill="#33CC99"/>
<path d="M87.3739 25.9859C84.8251 25.9859 82.743 27.98 82.743 30.7313C82.743 33.4604 84.8251 35.4754 87.3739 35.4754C89.9281 35.4754 92.0102 33.4604 92.0102 30.7313C92.0102 27.98 89.9281 25.9859 87.3739 25.9859ZM87.3739 33.6068C85.9754 33.6068 84.7722 32.4201 84.7722 30.7313C84.7722 29.0203 85.9754 27.8545 87.3739 27.8545C88.7724 27.8545 89.981 29.0203 89.981 30.7313C89.981 32.4201 88.7724 33.6068 87.3739 33.6068ZM77.2697 25.9859C74.7155 25.9859 72.6388 27.98 72.6388 30.7313C72.6388 33.4604 74.7155 35.4754 77.2697 35.4754C79.8225 35.4754 81.9006 33.4604 81.9006 30.7313C81.9006 27.98 79.8225 25.9859 77.2697 25.9859ZM77.2697 33.6068C75.8698 33.6068 74.6626 32.4201 74.6626 30.7313C74.6626 29.0203 75.8698 27.8545 77.2697 27.8545C78.6682 27.8545 79.8714 29.0203 79.8714 30.7313C79.8714 32.4201 78.6682 33.6068 77.2697 33.6068ZM65.2461 27.4403V29.4568H69.9299C69.7929 30.5835 69.4267 31.4119 68.8651 31.9892C68.1814 32.6864 67.1166 33.4604 65.2461 33.4604C62.3636 33.4604 60.1065 31.0688 60.1065 28.1055C60.1065 25.1422 62.3636 22.7506 65.2461 22.7506C66.8046 22.7506 67.9386 23.3768 68.7756 24.1884L70.1578 22.7674C68.9872 21.6183 67.43 20.7356 65.2461 20.7356C61.2934 20.7356 57.9714 24.0419 57.9714 28.1055C57.9714 32.1691 61.2934 35.4754 65.2461 35.4754C67.3825 35.4754 68.9872 34.7559 70.2487 33.406C71.5414 32.077 71.9442 30.2084 71.9442 28.6996C71.9442 28.231 71.9063 27.8001 71.8384 27.4403H65.2461ZM114.412 29.0036C114.031 27.9423 112.855 25.9859 110.459 25.9859C108.086 25.9859 106.109 27.9089 106.109 30.7313C106.109 33.3892 108.065 35.4754 110.687 35.4754C112.807 35.4754 114.031 34.1465 114.534 33.3725L112.961 32.2946C112.436 33.0839 111.721 33.6068 110.687 33.6068C109.66 33.6068 108.924 33.1229 108.452 32.1691L114.625 29.5432L114.412 29.0036ZM108.118 30.5835C108.065 28.7539 109.5 27.8168 110.529 27.8168C111.334 27.8168 112.018 28.231 112.246 28.8237L108.118 30.5835ZM103.101 35.1868H105.13V21.2418H103.101V35.1868ZM99.7773 27.0429H99.7095C99.2537 26.4879 98.3842 25.9859 97.2828 25.9859C94.9714 25.9859 92.858 28.072 92.858 30.7467C92.858 33.406 94.9714 35.4754 97.2828 35.4754C98.3842 35.4754 99.2537 34.9692 99.7095 34.3975H99.7773V35.078C99.7773 36.8922 98.8345 37.867 97.314 37.867C96.0742 37.867 95.3051 36.9466 94.9877 36.1727L93.2229 36.9299C93.7316 38.1877 95.0785 39.7356 97.314 39.7356C99.6932 39.7356 101.701 38.2965 101.701 34.7949V26.2745H99.7773V27.0429ZM97.4564 33.6068C96.0579 33.6068 94.8873 32.4033 94.8873 30.7467C94.8873 29.0747 96.0579 27.8545 97.4564 27.8545C98.8346 27.8545 99.9211 29.0747 99.9211 30.7467C99.9211 32.4033 98.8346 33.6068 97.4564 33.6068ZM123.913 21.2418H119.059V35.1868H121.083V29.903H123.913C126.16 29.903 128.365 28.231 128.365 25.5717C128.365 22.9138 126.155 21.2418 123.913 21.2418ZM123.966 27.9633H121.083V23.1815H123.966C125.477 23.1815 126.339 24.4714 126.339 25.5717C126.339 26.651 125.477 27.9633 123.966 27.9633ZM136.476 25.9594C135.014 25.9594 133.493 26.6232 132.868 28.0943L134.664 28.8683C135.05 28.0943 135.761 27.8433 136.513 27.8433C137.563 27.8433 138.627 28.4918 138.644 29.6367V29.7831C138.277 29.5655 137.493 29.2434 136.529 29.2434C134.595 29.2434 132.624 30.3381 132.624 32.381C132.624 34.2497 134.208 35.4531 135.989 35.4531C137.351 35.4531 138.102 34.8214 138.575 34.0865H138.644V35.1644H140.598V29.8152C140.598 27.3427 138.802 25.9594 136.476 25.9594ZM136.232 33.6012C135.57 33.6012 134.648 33.2637 134.648 32.4201C134.648 31.3407 135.798 30.9266 136.794 30.9266C137.685 30.9266 138.102 31.1288 138.644 31.3951C138.485 32.6864 137.404 33.6012 136.232 33.6012ZM147.72 26.2648L145.393 32.3099H145.324L142.919 26.2648H140.737L144.35 34.7126L142.288 39.4135H144.403L149.971 26.2648H147.72ZM129.477 35.1868H131.506V21.2418H129.477V35.1868Z" fill="#33CC99"/>
<defs>
<clipPath id="clip0_2260_13201">
<rect width="29" height="29" fill="white" transform="translate(20.0286 9.5)"/>
</clipPath>
</defs>
</svg>
