<svg width="32" height="32" viewBox="0 0 32 32" fill="none" xmlns="http://www.w3.org/2000/svg">
<path d="M12.1875 16H3.3V15.9875C3.3 13.5438 4.5125 11.2813 6.54375 9.92505L12.1187 6.2063C12.85 5.7188 13.0437 4.73755 12.5562 4.0063C12.25 3.55005 11.75 3.30005 11.2312 3.30005C10.9312 3.30005 10.625 3.38755 10.35 3.5688L4.775 7.28755C1.86875 9.22505 0.125 12.4813 0.125 15.9875V28.0625C0.125 28.4125 0.40625 28.7001 0.7625 28.7001H12.1875C12.5375 28.7001 12.825 28.4188 12.825 28.0625V16.6375C12.825 16.2813 12.5437 16 12.1875 16ZM31.2375 16H22.35V15.9875C22.35 13.5438 23.5625 11.2813 25.5938 9.92505L31.1688 6.2063C31.9 5.7188 32.0938 4.73755 31.6063 4.0063C31.3 3.55005 30.8 3.30005 30.2812 3.30005C29.9813 3.30005 29.675 3.38755 29.4 3.5688L23.825 7.28755C20.9062 9.2313 19.1688 12.4813 19.1688 15.9875V28.0625C19.1688 28.4125 19.45 28.7001 19.8062 28.7001H31.2375C31.5875 28.7001 31.875 28.4188 31.875 28.0625V16.6375C31.875 16.2813 31.5875 16 31.2375 16Z" fill="#33CC99" fill-opacity="0.1"/>
</svg>
