<svg width="14" height="14" viewBox="0 0 14 14" fill="none" xmlns="http://www.w3.org/2000/svg">
<path d="M5.50016 6.93375C5.10046 6.21041 4.93461 5.38102 5.02543 4.55959C5.11625 3.73816 5.45926 2.96503 6.00733 2.34647C6.55539 1.72791 7.28159 1.29429 8.08611 1.10523C8.89062 0.916163 9.73395 0.980929 10.5002 1.29063L8.00016 4L8.35391 5.64625L10.0002 6L12.7095 3.5C13.0192 4.26621 13.084 5.10954 12.8949 5.91405C12.7059 6.71857 12.2723 7.44477 11.6537 7.99284C11.0351 8.5409 10.262 8.88392 9.44057 8.97473C8.61915 9.06555 7.78975 8.89971 7.06641 8.5L3.56266 12.5625C3.28087 12.8443 2.89868 13.0026 2.50016 13.0026C2.10165 13.0026 1.71945 12.8443 1.43766 12.5625C1.15587 12.2807 0.997559 11.8985 0.997559 11.5C0.997559 11.1015 1.15587 10.7193 1.43766 10.4375L5.50016 6.93375Z" stroke="#FF8B3D" stroke-width="1.2" stroke-linecap="round" stroke-linejoin="round"/>
</svg>
