<svg width="20" height="20" viewBox="0 0 20 20" fill="none" xmlns="http://www.w3.org/2000/svg">
<path d="M16.5625 10C17.4254 10 18.125 9.30044 18.125 8.4375C18.125 7.57456 17.4254 6.875 16.5625 6.875C15.6996 6.875 15 7.57456 15 8.4375C15 9.30044 15.6996 10 16.5625 10Z" stroke="#33CC99" stroke-width="1.2" stroke-linecap="round" stroke-linejoin="round"/>
<path d="M3.4375 10C4.30044 10 5 9.30044 5 8.4375C5 7.57456 4.30044 6.875 3.4375 6.875C2.57456 6.875 1.875 7.57456 1.875 8.4375C1.875 9.30044 2.57456 10 3.4375 10Z" stroke="#33CC99" stroke-width="1.2" stroke-linecap="round" stroke-linejoin="round"/>
<path d="M7.1875 6.25C8.05044 6.25 8.75 5.55044 8.75 4.6875C8.75 3.82456 8.05044 3.125 7.1875 3.125C6.32456 3.125 5.625 3.82456 5.625 4.6875C5.625 5.55044 6.32456 6.25 7.1875 6.25Z" stroke="#33CC99" stroke-width="1.2" stroke-linecap="round" stroke-linejoin="round"/>
<path d="M12.8125 6.25C13.6754 6.25 14.375 5.55044 14.375 4.6875C14.375 3.82456 13.6754 3.125 12.8125 3.125C11.9496 3.125 11.25 3.82456 11.25 4.6875C11.25 5.55044 11.9496 6.25 12.8125 6.25Z" stroke="#33CC99" stroke-width="1.2" stroke-linecap="round" stroke-linejoin="round"/>
<path d="M9.99976 8.125C9.39029 8.12522 8.79737 8.32342 8.31028 8.68976C7.82319 9.0561 7.46828 9.57076 7.29898 10.1562C7.04882 11.0174 6.46835 11.7447 5.68414 12.1797C5.11484 12.4832 4.68492 12.9951 4.4843 13.6083C4.28367 14.2215 4.32787 14.8885 4.60765 15.4698C4.88743 16.0512 5.38112 16.5019 5.9855 16.7276C6.58988 16.9534 7.25814 16.9368 7.85055 16.6812C9.22722 16.1168 10.7707 16.1168 12.1474 16.6812C12.7398 16.9368 13.4081 16.9534 14.0125 16.7276C14.6168 16.5019 15.1105 16.0512 15.3903 15.4698C15.6701 14.8885 15.7143 14.2215 15.5137 13.6083C15.313 12.9951 14.8831 12.4832 14.3138 12.1797C13.53 11.7446 12.9501 11.0173 12.7005 10.1562C12.5312 9.57076 12.1763 9.0561 11.6892 8.68976C11.2022 8.32342 10.6092 8.12522 9.99976 8.125Z" stroke="#33CC99" stroke-width="1.2" stroke-linecap="round" stroke-linejoin="round"/>
</svg>
