<svg width="20" height="20" viewBox="0 0 20 20" fill="none" xmlns="http://www.w3.org/2000/svg">
<path d="M6.875 4.375H5C4.65482 4.375 4.375 4.65482 4.375 5V15C4.375 15.3452 4.65482 15.625 5 15.625H6.875C7.22018 15.625 7.5 15.3452 7.5 15V5C7.5 4.65482 7.22018 4.375 6.875 4.375Z" stroke="#33CC99" stroke-width="1.2" stroke-linecap="round" stroke-linejoin="round"/>
<path d="M15 4.375H13.125C12.7798 4.375 12.5 4.65482 12.5 5V15C12.5 15.3452 12.7798 15.625 13.125 15.625H15C15.3452 15.625 15.625 15.3452 15.625 15V5C15.625 4.65482 15.3452 4.375 15 4.375Z" stroke="#33CC99" stroke-width="1.2" stroke-linecap="round" stroke-linejoin="round"/>
<path d="M15.625 6.25H17.5C17.6658 6.25 17.8247 6.31585 17.9419 6.43306C18.0592 6.55027 18.125 6.70924 18.125 6.875V13.125C18.125 13.2908 18.0592 13.4497 17.9419 13.5669C17.8247 13.6842 17.6658 13.75 17.5 13.75H15.625" stroke="#33CC99" stroke-width="1.2" stroke-linecap="round" stroke-linejoin="round"/>
<path d="M4.375 13.75H2.5C2.33424 13.75 2.17527 13.6842 2.05806 13.5669C1.94085 13.4497 1.875 13.2908 1.875 13.125V6.875C1.875 6.70924 1.94085 6.55027 2.05806 6.43306C2.17527 6.31585 2.33424 6.25 2.5 6.25H4.375" stroke="#33CC99" stroke-width="1.2" stroke-linecap="round" stroke-linejoin="round"/>
<path d="M7.5 10H12.5" stroke="#33CC99" stroke-width="1.2" stroke-linecap="round" stroke-linejoin="round"/>
<path d="M18.125 10H19.375" stroke="#33CC99" stroke-width="1.2" stroke-linecap="round" stroke-linejoin="round"/>
<path d="M0.625 10H1.875" stroke="#33CC99" stroke-width="1.2" stroke-linecap="round" stroke-linejoin="round"/>
</svg>
