<svg width="20" height="20" viewBox="0 0 20 20" fill="none" xmlns="http://www.w3.org/2000/svg">
<path d="M11.2719 8.72815C9.31248 5.46174 11.925 2.19611 17.4773 2.52268C17.8039 8.07502 14.5383 10.6875 11.2719 8.72815Z" stroke="#33CC99" stroke-width="1.2" stroke-linecap="round" stroke-linejoin="round"/>
<path d="M7.6564 8.90625C9.0814 6.53047 7.1814 4.15547 3.14312 4.39297C2.90406 8.42969 5.27906 10.3297 7.6564 8.90625Z" stroke="#33CC99" stroke-width="1.2" stroke-linecap="round" stroke-linejoin="round"/>
<path d="M4.375 11.875H15.625" stroke="#33CC99" stroke-width="1.2" stroke-linecap="round" stroke-linejoin="round"/>
<path d="M14.375 11.875L13.2336 17.0109C13.2027 17.1497 13.1254 17.2738 13.0144 17.3627C12.9035 17.4516 12.7656 17.5 12.6234 17.5H7.37656C7.2344 17.5 7.09648 17.4516 6.98555 17.3627C6.87463 17.2738 6.79733 17.1497 6.76641 17.0109L5.625 11.875" stroke="#33CC99" stroke-width="1.2" stroke-linecap="round" stroke-linejoin="round"/>
<path d="M11.2719 8.72815L8.125 11.875" stroke="#33CC99" stroke-width="1.2" stroke-linecap="round" stroke-linejoin="round"/>
<path d="M7.65479 8.90466L9.3751 10.625" stroke="#33CC99" stroke-width="1.2" stroke-linecap="round" stroke-linejoin="round"/>
</svg>
