<svg width="24" height="24" viewBox="0 0 24 24" fill="none" xmlns="http://www.w3.org/2000/svg">
<g clip-path="url(#clip0_2273_18852)">
<path d="M12 15.75C14.0711 15.75 15.75 14.0711 15.75 12C15.75 9.92893 14.0711 8.25 12 8.25C9.92893 8.25 8.25 9.92893 8.25 12C8.25 14.0711 9.92893 15.75 12 15.75Z" stroke="#99FF00" stroke-width="1.2" stroke-miterlimit="10"/>
<path d="M16.5 3H7.5C5.01472 3 3 5.01472 3 7.5V16.5C3 18.9853 5.01472 21 7.5 21H16.5C18.9853 21 21 18.9853 21 16.5V7.5C21 5.01472 18.9853 3 16.5 3Z" stroke="#99FF00" stroke-width="1.2" stroke-linecap="round" stroke-linejoin="round"/>
<path d="M16.875 6.59961C17.1649 6.59961 17.4004 6.83505 17.4004 7.125C17.4004 7.41495 17.1649 7.65039 16.875 7.65039C16.5851 7.65039 16.3496 7.41495 16.3496 7.125C16.3496 6.83505 16.5851 6.59961 16.875 6.59961Z" stroke="#99FF00" stroke-width="1.2"/>
</g>
<defs>
<clipPath id="clip0_2273_18852">
<rect width="24" height="24" fill="white"/>
</clipPath>
</defs>
</svg>
