<svg width="24" height="24" viewBox="0 0 24 24" fill="none" xmlns="http://www.w3.org/2000/svg">
<g clip-path="url(#clip0_2273_18854)">
<path d="M6.75 9.75C6.75 8.95435 7.06607 8.19129 7.62868 7.62868C8.19129 7.06607 8.95435 6.75 9.75 6.75L11.25 9.75L10.095 11.4816C10.5532 12.5763 11.4237 13.4468 12.5184 13.905L14.25 12.75L17.25 14.25C17.25 15.0456 16.9339 15.8087 16.3713 16.3713C15.8087 16.9339 15.0456 17.25 14.25 17.25C12.2609 17.25 10.3532 16.4598 8.9467 15.0533C7.54018 13.6468 6.75 11.7391 6.75 9.75Z" stroke="#99FF00" stroke-width="1.2" stroke-linecap="round" stroke-linejoin="round"/>
<path d="M7.49332 19.7914C9.38381 20.8856 11.6077 21.2549 13.7504 20.8304C15.893 20.406 17.8082 19.2168 19.1388 17.4846C20.4695 15.7524 21.1247 13.5954 20.9824 11.4157C20.8401 9.23605 19.91 7.18253 18.3655 5.638C16.821 4.09348 14.7675 3.16336 12.5878 3.02108C10.4081 2.87879 8.25113 3.53405 6.51892 4.86468C4.78671 6.1953 3.59752 8.11048 3.17309 10.2531C2.74865 12.3958 3.11792 14.6197 4.21207 16.5102L3.03925 20.0118C2.99518 20.1439 2.98879 20.2857 3.02078 20.4213C3.05278 20.5569 3.1219 20.6808 3.2204 20.7794C3.3189 20.8779 3.44289 20.947 3.57847 20.979C3.71405 21.011 3.85586 21.0046 3.988 20.9605L7.49332 19.7914Z" stroke="#99FF00" stroke-width="1.2" stroke-linecap="round" stroke-linejoin="round"/>
</g>
<defs>
<clipPath id="clip0_2273_18854">
<rect width="24" height="24" fill="white"/>
</clipPath>
</defs>
</svg>
