<svg width="24" height="24" viewBox="0 0 24 24" fill="none" xmlns="http://www.w3.org/2000/svg">
<g clip-path="url(#clip0_2273_18917)">
<path d="M6.75 9.75C6.75 8.95435 7.06607 8.19129 7.62868 7.62868C8.19129 7.06607 8.95435 6.75 9.75 6.75L11.25 9.75L10.095 11.4816C10.5532 12.5763 11.4237 13.4468 12.5184 13.905L14.25 12.75L17.25 14.25C17.25 15.0456 16.9339 15.8087 16.3713 16.3713C15.8087 16.9339 15.0456 17.25 14.25 17.25C12.2609 17.25 10.3532 16.4598 8.9467 15.0533C7.54018 13.6468 6.75 11.7391 6.75 9.75Z" stroke="#33CC99" stroke-width="1.2" stroke-linecap="round" stroke-linejoin="round"/>
<path d="M7.49356 19.7917C9.38406 20.8858 11.608 21.2551 13.7506 20.8307C15.8933 20.4062 17.8084 19.217 19.1391 17.4848C20.4697 15.7526 21.125 13.5956 20.9827 11.4159C20.8404 9.2363 19.9103 7.18277 18.3657 5.63825C16.8212 4.09372 14.7677 3.16361 12.588 3.02132C10.4084 2.87904 8.25138 3.53429 6.51916 4.86492C4.78695 6.19555 3.59777 8.11072 3.17333 10.2534C2.74889 12.396 3.11817 14.6199 4.21231 16.5104L3.0395 20.012C2.99543 20.1441 2.98903 20.286 3.02103 20.4215C3.05302 20.5571 3.12215 20.6811 3.22065 20.7796C3.31915 20.8781 3.44314 20.9472 3.57871 20.9792C3.71429 21.0112 3.8561 21.0048 3.98825 20.9607L7.49356 19.7917Z" stroke="#33CC99" stroke-width="1.2" stroke-linecap="round" stroke-linejoin="round"/>
</g>
<defs>
<clipPath id="clip0_2273_18917">
<rect width="24" height="24" fill="white"/>
</clipPath>
</defs>
</svg>
